<svg width="326" height="129" viewBox="0 0 326 129" fill="none" xmlns="http://www.w3.org/2000/svg">
<g clip-path="url(#clip0_123_1717)">
<path d="M287.903 128.115C278.443 128.115 270.772 120.398 270.772 110.875C270.772 101.352 278.443 93.6347 287.903 93.6347C297.366 93.6347 305.038 101.352 305.038 110.875C305.038 120.398 297.366 128.115 287.903 128.115Z" fill="white" stroke="#2B2A29" stroke-width="0.5"/>
<path d="M270.522 110.875C270.522 120.534 278.303 128.365 287.903 128.365C297.505 128.365 305.288 120.534 305.288 110.875C305.288 101.215 297.505 93.3847 287.903 93.3847C278.303 93.3847 270.522 101.215 270.522 110.875Z" stroke="#2B2A29" stroke-width="0.5" stroke-miterlimit="10"/>
<path d="M287.904 122.481C281.536 122.481 276.37 117.287 276.37 110.875C276.37 104.463 281.536 99.2672 287.904 99.2672C294.274 99.2672 299.44 104.463 299.44 110.875C299.44 117.287 294.274 122.481 287.904 122.481Z" fill="white" stroke="#2B2A29" stroke-width="0.5"/>
<path d="M276.12 110.875C276.12 117.423 281.396 122.731 287.904 122.731C294.413 122.731 299.69 117.423 299.69 110.875C299.69 104.326 294.413 99.0172 287.904 99.0172C281.396 99.0172 276.12 104.326 276.12 110.875Z" stroke="#2B2A29" stroke-width="0.5" stroke-miterlimit="10"/>
<path d="M287.903 120.179C282.8 120.179 278.659 116.014 278.659 110.875C278.659 105.735 282.8 101.571 287.903 101.571C293.009 101.571 297.15 105.736 297.15 110.875C297.15 116.014 293.009 120.179 287.903 120.179Z" fill="white" stroke="#2B2A29" stroke-width="0.5"/>
<path d="M278.409 110.875C278.409 116.151 282.661 120.429 287.903 120.429C293.148 120.429 297.4 116.151 297.4 110.875C297.4 105.599 293.148 101.321 287.903 101.321C282.661 101.321 278.409 105.599 278.409 110.875Z" stroke="#2B2A29" stroke-width="0.5" stroke-miterlimit="10"/>
<path d="M287.904 116.147C285.014 116.147 282.667 113.788 282.667 110.875C282.667 107.961 285.014 105.603 287.904 105.603C290.797 105.603 293.144 107.962 293.144 110.875C293.144 113.788 290.797 116.147 287.904 116.147Z" fill="white" stroke="#2B2A29" stroke-width="0.5"/>
<path d="M282.417 110.875C282.417 113.925 284.874 116.397 287.904 116.397C290.936 116.397 293.394 113.925 293.394 110.875C293.394 107.825 290.936 105.353 287.904 105.353C284.874 105.353 282.417 107.825 282.417 110.875Z" stroke="#2B2A29" stroke-width="0.5" stroke-miterlimit="10"/>
<path d="M323.401 95.7287C323.401 97.0787 322.315 98.1691 320.979 98.1691H320.103V89.6824L320.98 89.6803C320.98 89.6803 320.98 89.6803 320.98 89.6803C322.315 89.6772 323.401 90.766 323.401 92.1144V95.7287Z" fill="white" stroke="#2B2A29" stroke-width="0.5"/>
<path d="M323.651 95.7287C323.651 97.2152 322.455 98.4191 320.979 98.4191H319.853V89.433L320.979 89.4303C322.454 89.4268 323.651 90.6293 323.651 92.1144V95.7287Z" stroke="#2B2A29" stroke-width="0.5" stroke-miterlimit="10"/>
<path d="M319.062 111.595C318.464 111.595 317.976 111.107 317.976 110.499V100.813C317.976 100.207 318.464 99.7185 319.062 99.7185H323.907C324.573 99.7185 325.116 100.261 325.116 100.934V110.377C325.116 111.05 324.573 111.595 323.907 111.595H319.062Z" fill="white" stroke="#2B2A29" stroke-width="0.5"/>
<path d="M317.726 110.499C317.726 111.243 318.324 111.845 319.062 111.845H323.907C324.712 111.845 325.366 111.187 325.366 110.377V100.934C325.366 100.124 324.712 99.4685 323.907 99.4685H319.062C318.324 99.4685 317.726 100.071 317.726 100.813V110.499Z" stroke="#2B2A29" stroke-width="0.5" stroke-miterlimit="10"/>
<path d="M206.454 89.3538H115.199V84.2063H206.454V89.3538Z" fill="white" stroke="#2B2A29" stroke-width="0.5"/>
<path d="M206.704 89.6038H114.949V83.9563H206.704V89.6038Z" stroke="#2B2A29" stroke-width="0.5" stroke-miterlimit="10"/>
<path d="M38.0391 89.3538H-96.0093V83.8448H38.0391V89.3538Z" fill="white" stroke="#2B2A29" stroke-width="0.5"/>
<path d="M38.2891 89.6038H-96.2593V83.5948H38.2891V89.6038Z" stroke="#2B2A29" stroke-width="0.5" stroke-miterlimit="10"/>
<path d="M95.277 98.3445H99.1987V103.776H95.277C93.9413 103.776 92.8545 102.684 92.8545 101.336V100.784C92.8545 99.4363 93.9413 98.3445 95.277 98.3445Z" fill="white" stroke="#2B2A29" stroke-width="0.5"/>
<path d="M99.4487 98.0945H95.277C93.8017 98.0945 92.6045 99.2998 92.6045 100.784V101.336C92.6045 102.821 93.8017 104.026 95.277 104.026H99.4487V98.0945Z" stroke="#2B2A29" stroke-width="0.5" stroke-miterlimit="10"/>
<path d="M98.4273 89.3749H98.5338H98.6425H98.7534H98.8664H98.9815H99.0988H99.2182H99.3397H99.4634H99.5891H99.7169H99.8468H99.9788H100.113H100.249H100.387H100.527H100.67H100.814H100.96H101.108H101.259H101.411H101.565H101.721H101.88H102.04H102.202H102.366H102.532H102.7H102.869H103.041H103.215H103.39H103.567H103.746H103.927H104.11H104.295H104.482H104.67H104.86H105.052H105.246H105.442H105.639H105.838H106.039H106.242H106.446H106.652H106.86H107.07H107.281H107.494H107.708H107.925H108.143H108.362H108.584H108.807H109.031H109.258H109.486H109.715H109.946H110.179H110.413H110.649H110.886H111.125H111.366H111.608H111.852H112.097H112.344H112.592H112.841H113.093H113.345H113.599H113.855H114.112H114.37H114.63H114.892H115.154H115.419H115.684H115.951H116.22H116.489H116.761H117.033H117.307H117.582H117.859H118.136H118.416H118.696H118.978H119.261H119.545H119.831H120.118H120.406H120.695H120.986H121.278H121.571H121.865H122.16H122.457H122.755H123.054H123.354H123.656H123.958H124.262H124.566H124.872H125.179H125.488H125.797H126.107H126.419H126.731H127.045H127.359H127.675H127.992H128.309H128.628H128.948H129.268H129.59H129.913H130.237H130.561H130.887H131.214H131.541H131.87H132.199H132.529H132.86H133.193H133.526H133.859H134.194H134.53H134.866H135.204H135.542H135.881H136.22H136.561H136.902H137.245H137.588H137.931H138.276H138.621H138.967H139.314H139.662H140.01H140.359H140.708H141.059H141.41H141.762H142.114H142.467H142.821H143.175H143.53H143.886H144.242H144.599H144.956H145.314H145.673H146.032H146.392H146.752H147.113H147.475H147.837H148.199H148.562H148.926H149.29H149.654H150.019H150.384H150.75H151.117H151.484H151.851H152.218H152.587H152.955H153.324H153.693H154.063H154.433H154.803H155.174H155.545H155.917H156.289H156.661H157.033H157.406H157.779H158.152H158.526H158.9H159.274H159.648H160.023H160.398H160.773H161.148H161.524H161.899H162.275H162.651H163.028H163.404H163.781H164.157H164.534H164.911H165.288H165.666H166.043H166.42H166.798H167.176H167.553H167.931H168.309H168.687H169.065H169.442H169.82H170.198H170.576H170.954H171.332H171.71H172.088H172.466H172.843H173.221H173.599H173.976H174.354H174.731H175.108H175.485H175.863H176.239H176.616H176.993H177.369H177.746H178.122H178.498H178.873H179.249H179.624H179.999H180.374H180.749H181.123H181.497H181.871H182.245H182.618H182.991H183.364H183.737H184.109H184.48H184.852H185.223H185.594H185.964H186.334H186.704H187.073H187.442H187.811H188.179H188.547H188.914H189.281H189.647H190.013H190.379H190.744H191.108H191.472H191.836H192.199H192.561H192.923H193.285H193.646H194.006H194.366H194.725H195.084H195.442H195.8H196.156H196.513H196.868H197.224H197.578H197.932H198.285H198.637H198.989H199.34H199.691H200.04H200.389H200.738H201.085H201.432H201.778H202.124H202.468H202.812H203.155H203.497H203.839H204.179H204.519H204.858H205.197H205.534H205.87H206.206H206.541H206.875H207.208H207.54H207.871H208.202H208.531H208.86H209.187H209.514H209.84H210.165H210.488H210.811H211.133H211.454H211.774H212.093H212.41H212.727H213.043H213.358H213.671H213.984H214.295H214.606H214.915H215.223H215.53H215.836H216.141H216.445H216.748H217.049H217.349H217.649H217.947H218.243H218.539H218.833H219.126H219.418H219.709H219.999H220.287H220.574H220.859H221.144H221.427H221.709H221.99H222.269H222.547H222.823H223.099H223.373H223.645H223.916H224.186H224.455H224.722H224.988H225.252H225.515H225.776H226.036H226.295H226.552H226.808H227.062H227.315H227.566H227.816H228.064H228.311H228.556H228.8H229.042H229.283H229.522H229.76H229.996H230.23H230.463H230.694H230.924H231.152H231.378H231.603H231.826H232.048H232.267H232.486H232.702H232.917H233.13H233.341H233.551H233.759H233.965H234.17H234.373H234.574H234.773H234.971H235.166H235.36H235.552H235.743H235.931H236.118H236.303H236.486H236.667H236.846H237.024H237.2H237.373H237.545H237.715H237.883H238.049H238.213H238.376H238.536H238.694H238.851H239.005H239.157H239.308H239.456H239.603H239.747H239.89H240.03H240.168H240.305H240.439H240.571H240.701H240.829H240.955H241.079H241.2H241.32H241.438H241.553H241.666H241.777H241.886H241.993H242.097H242.2H242.3H242.398H242.493H242.587H242.678H242.767H242.851V110.905H242.769H242.685H242.601H242.516H242.431H242.346H242.26H242.174H242.088H242.001H241.914H241.826H241.738H241.65H241.561H241.472H241.383H241.293H241.203H241.112H241.022H240.931H240.839H240.747H240.655H240.563H240.47H240.377H240.283H240.19H240.096H240.001H239.906H239.811H239.716H239.62H239.524H239.428H239.331H239.234H239.137H239.039H238.942H238.843H238.745H238.646H238.547H238.448H238.348H238.248H238.148H238.048H237.947H237.846H237.745H237.643H237.541H237.439H237.337H237.234H237.131H237.028H236.925H236.821H236.717H236.613H236.508H236.404H236.299H236.194H236.088H235.982H235.876H235.77H235.664H235.557H235.45H235.343H235.236H235.129H235.021H234.913H234.805H234.696H234.588H234.479H234.37H234.26H234.151H234.041H233.931H233.821H233.711H233.601H233.49H233.379H233.268H233.157H233.045H232.934H232.822H232.71H232.598H232.485H232.373H232.26H232.147H232.034H231.921H231.808H231.694H231.581H231.467H231.353H231.239H231.125H231.01H230.896H230.781H230.666H230.551H230.436H230.32H230.205H230.09H229.974H229.858H229.742H229.626H229.51H229.393H229.277H229.161H229.044H228.927H228.81H228.693H228.576H228.459H228.342H228.224H228.107H227.989H227.871H227.754H227.636H227.518H227.4H227.282H227.163H227.045H226.927H226.808H226.69H226.571H226.452H226.334H226.215H226.096H225.977H225.858H225.739H225.62H225.501H225.381H225.262H225.143H225.023H224.904H224.785H224.665H224.546H224.426H224.307H224.187H224.067H223.948H223.828H223.708H223.588H223.469H223.349H223.229H223.109H222.989H222.87H222.75H222.63H222.51H222.39H222.27H222.151H222.031H221.911H221.791H221.671H221.551H221.432H221.312H221.192H221.072H220.953H220.833H220.713H220.594H220.474H220.355H220.235H220.116H219.996H219.877H219.758H219.638H219.519H219.4H219.281H219.162H219.043H218.924H218.805H218.686H218.567H218.448H218.33H218.211H218.093H217.974H217.856H217.737H217.619H217.501H217.383H217.265H217.147H217.03H216.912H216.794H216.677H216.559H216.442H216.325H216.208H216.091H215.974H215.857H215.741H215.624H215.508H215.392H215.275H215.159H215.043H214.928H214.812H214.697H214.581H214.466H214.351H214.236H214.121H214.006H213.892H213.777H213.663H213.549H213.435H213.321H213.208H213.094H212.981H212.868H212.755H212.642H212.529H212.417H212.305H212.193H212.081H211.969H211.857H211.746H211.635H211.524H211.413H211.302H211.192H211.082H210.972H210.862H210.752H210.643H210.534H210.425H210.316H210.207H210.099H209.991H209.883H209.775H209.668H209.561H209.454H209.347H209.24H209.134H209.028H208.922H208.816H208.711H208.606H208.501H208.396H208.292H208.188H208.084H207.98H207.877H207.774H207.671H207.569H207.466H207.364H207.262H207.161H207.06H206.959H206.858H206.758H206.658H206.558H206.458H206.359H206.26H206.161H206.063H205.965H205.867H205.77H205.673H205.576H205.479H205.383H205.287H205.192H205.096H205.001H204.907H204.812H204.718H204.625H204.531H204.438H204.345H204.253H204.161H204.069H203.978H203.887H203.796H203.706H203.616H203.526H203.437H203.348H203.26H203.172H203.084H202.996H202.909H202.822H202.736H202.65H202.564H202.479H202.394H202.31H202.226H202.142H202.058H201.976H201.893H201.811H201.729H201.648H201.567H201.486H201.406H201.326H201.247H201.168H201.089H201.011H200.933H200.856H200.779H200.702H200.626H200.551H200.475H200.401H200.326H200.252H200.179H200.106H200.033H199.961H199.889H199.818H199.747H199.676H199.607H199.537H199.468H199.399H199.331H199.264H199.196H199.13H199.063H198.997H198.932H198.867H198.803H198.739H198.675H198.612H198.55H198.488H198.426H198.365H198.305H198.245H198.185H198.126H198.068H198.01H197.952H197.895H197.839H197.782H197.727H197.672H197.617H197.564H197.51H197.457H197.405H197.353H197.302H197.251H197.2H197.151H197.101H197.053H197.005H196.957H196.91H196.863H196.817H196.772H196.727H196.683H196.639H196.596H196.553H196.511H196.47H196.429H196.388H196.349H196.309H196.271H196.233H196.195H196.158H196.122H196.086H196.051H196.016H195.982H195.949H195.916H195.884H195.853H195.822H195.791H195.761H195.732H195.704H195.676H195.648H195.622H195.595H195.57H195.545H195.521H195.516C195.432 99.5601 186.266 90.3868 174.966 90.3868C164.557 90.3868 154.888 98.2985 154.423 110.905H148.362C148.277 99.6335 139.104 90.3868 127.813 90.3868C117.42 90.3868 107.74 98.2671 107.268 110.931H98.4198C97.0825 110.931 95.9952 109.84 95.9952 108.491V91.8139C95.9952 90.4639 97.0876 89.3749 98.4273 89.3749Z" fill="white" stroke="#2B2A29" stroke-width="0.5"/>
<path d="M98.4273 89.1249C116.42 89.1249 229.646 89.1249 243.101 89.1249V111.155C229.088 111.155 197.932 111.155 195.263 111.155C195.263 111.124 195.267 111.094 195.267 111.063C195.267 99.782 186.179 90.6368 174.966 90.6368C164.621 90.6368 155.01 98.548 154.665 111.155H148.11C148.11 111.124 148.112 111.094 148.112 111.063C148.112 99.8561 139.017 90.6368 127.813 90.6368C117.484 90.6368 107.863 98.5157 107.51 111.181H98.4198C96.9431 111.181 95.7452 109.977 95.7452 108.491V91.8139C95.7452 90.3261 96.9493 89.1249 98.4273 89.1249Z" stroke="#2B2A29" stroke-width="0.5" stroke-miterlimit="10"/>
<path d="M264.466 22.7628L264.466 22.7631L264.479 22.7641C266.125 22.8955 267.67 23.6514 268.791 24.8741L268.799 24.8828L268.808 24.8907L283.463 38.1277H247.109V23.0383C247.109 21.7338 248.21 20.7109 249.498 20.81L264.466 22.7628Z" fill="white" stroke="#2B2A29" stroke-width="0.5"/>
<path d="M284.112 38.3777H246.859V23.0383C246.859 21.5875 248.086 20.4467 249.524 20.5613L264.499 22.5149C266.208 22.6514 267.812 23.4361 268.975 24.7052L284.112 38.3777Z" stroke="#2B2A29" stroke-width="0.5" stroke-miterlimit="10"/>
<path d="M317.586 65.3487L317.586 65.3488L317.59 65.358L319.604 70.4377V111.392H308.882C308.827 109.434 308.646 106.788 308.181 104.929C306.145 96.737 297.265 90.3415 287.957 90.3415C278.364 90.3415 270.647 96.8382 268.218 105.293C267.705 107.076 267.424 108.945 267.415 110.861H267.408H267.383H267.358H267.333H267.308H267.282H267.257H267.231H267.205H267.178H267.152H267.125H267.098H267.071H267.044H267.016H266.988H266.96H266.932H266.904H266.875H266.847H266.818H266.788H266.759H266.73H266.7H266.67H266.64H266.61H266.579H266.548H266.518H266.487H266.455H266.424H266.392H266.36H266.328H266.296H266.264H266.231H266.199H266.166H266.133H266.099H266.066H266.032H265.998H265.965H265.93H265.896H265.861H265.827H265.792H265.757H265.722H265.686H265.651H265.615H265.579H265.543H265.507H265.47H265.434H265.397H265.36H265.323H265.286H265.248H265.211H265.173H265.135H265.097H265.059H265.021H264.982H264.943H264.905H264.866H264.826H264.787H264.748H264.708H264.668H264.628H264.588H264.548H264.508H264.467H264.426H264.386H264.345H264.303H264.262H264.221H264.179H264.137H264.096H264.054H264.011H263.969H263.927H263.884H263.841H263.799H263.756H263.712H263.669H263.626H263.582H263.539H263.495H263.451H263.407H263.363H263.318H263.274H263.229H263.184H263.14H263.095H263.05H263.004H262.959H262.913H262.868H262.822H262.776H262.73H262.684H262.638H262.592H262.545H262.499H262.452H262.405H262.358H262.311H262.264H262.217H262.169H262.122H262.074H262.026H261.979H261.931H261.883H261.834H261.786H261.738H261.689H261.641H261.592H261.543H261.494H261.445H261.396H261.347H261.297H261.248H261.199H261.149H261.099H261.049H260.999H260.949H260.899H260.849H260.799H260.748H260.698H260.647H260.597H260.546H260.495H260.444H260.393H260.342H260.291H260.239H260.188H260.137H260.085H260.033H259.982H259.93H259.878H259.826H259.774H259.722H259.67H259.617H259.565H259.512H259.46H259.407H259.355H259.302H259.249H259.196H259.143H259.09H259.037H258.984H258.931H258.877H258.824H258.771H258.717H258.663H258.61H258.556H258.502H258.448H258.395H258.341H258.287H258.232H258.178H258.124H258.07H258.016H257.961H257.907H257.852H257.798H257.743H257.688H257.634H257.579H257.524H257.469H257.414H257.359H257.304H257.249H257.194H257.139H257.084H257.029H256.973H256.918H256.863H256.807H256.752H256.696H256.641H256.585H256.529H256.474H256.418H256.362H256.307H256.251H256.195H256.139H256.083H256.027H255.971H255.915H255.859H255.803H255.747H255.691H255.635H255.579H255.522H255.466H255.41H255.354H255.297H255.241H255.185H255.128H255.072H255.016H254.959H254.903H254.846H254.79H254.733H254.677H254.62H254.564H254.507H254.451H254.394H254.337H254.281H254.224H254.167H254.111H254.054H253.998H253.941H253.884H253.828H253.771H253.714H253.657H253.601H253.544H253.487H253.431H253.374H253.317H253.261H253.204H253.147H253.091H253.034H252.977H252.921H252.864H252.807H252.751H252.694H252.637H252.581H252.524H252.467H252.411H252.354H252.298H252.241H252.185H252.128H252.072H252.015H251.959H251.902H251.846H251.789H251.733H251.677H251.62H251.564H251.508H251.451H251.395H251.339H251.283H251.226H251.17H251.114H251.058H251.002H250.946H250.89H250.834H250.778H250.722H250.666H250.61H250.555H250.499H250.443H250.387H250.332H250.276H250.221H250.165H250.109H250.054H249.999H249.943H249.888H249.833H249.777H249.722H249.667H249.612H249.557H249.502H249.447H249.392H249.337H249.282H249.227H249.173H249.118H249.063H249.009H248.954H248.9H248.846H248.791H248.737H248.683H248.629H248.574H248.52H248.466H248.413H248.359H248.305H248.251H248.198H248.144H248.09H248.037H247.984H247.93H247.877H247.824H247.771H247.718H247.665H247.612H247.559H247.506H247.453H247.401H247.348H247.296H247.244H247.191H247.139H247.087H247.035H246.983H246.931H246.879H246.827H246.776H246.724H246.673H246.621H246.57H246.519H246.468H246.417H246.366H246.315H246.264H246.213H246.163H246.112H246.062H246.011H245.961H245.911H245.861H245.811H245.761H245.712H245.662H245.612H245.563H245.514H245.464H245.415H245.366H245.317H245.268H245.22H245.171H245.123H245.074H245.026H244.978H244.93H244.882H244.834H244.786H244.738H244.691H244.643H244.596H244.549H244.502H244.455H244.408H244.361H244.315H244.268H244.222H244.176H244.13H244.084H244.038H243.992H243.946H243.901H243.856H243.81H243.765H243.72H243.675H243.631H243.586H243.541H243.497H243.453H243.409H243.397V41.1023C243.397 39.753 244.483 38.6626 245.82 38.6626H305.72C307.211 38.6626 308.55 39.6143 309.048 41.0321L309.284 40.9493L309.048 41.0321L317.586 65.3487Z" fill="white" stroke="#2B2A29" stroke-width="0.5"/>
<path d="M268.344 105.362H268.458M268.458 105.362C267.929 107.201 267.65 109.132 267.665 111.111C263.879 111.111 250.522 111.111 243.147 111.111V41.1023C243.147 39.6165 244.343 38.4126 245.82 38.4126H305.72C307.318 38.4126 308.751 39.432 309.284 40.9493L317.822 65.2659L319.854 70.39V111.642H308.639C308.592 109.666 308.416 106.898 307.938 104.99C305.934 96.9243 297.167 90.5915 287.957 90.5915C278.483 90.5915 270.858 97.0073 268.458 105.362Z" stroke="#2B2A29" stroke-width="0.5" stroke-miterlimit="10"/>
<path d="M304.883 49.507L304.883 49.5071L310.115 64.0213L310.115 64.0214C310.501 65.0912 309.714 66.2163 308.589 66.2163H274.711C273.374 66.2163 272.288 65.1252 272.288 63.776V49.5828C272.288 48.2336 273.374 47.1432 274.711 47.1432H301.534C303.029 47.1432 304.373 48.0908 304.883 49.507Z" fill="white" stroke="#2B2A29" stroke-width="0.5"/>
<path d="M272.038 49.5828C272.038 48.097 273.235 46.8932 274.711 46.8932H301.534C303.135 46.8932 304.573 47.9077 305.118 49.4223L310.35 63.9365C310.794 65.1671 309.89 66.4663 308.589 66.4663H274.711C273.235 66.4663 272.038 65.2618 272.038 63.776V49.5828Z" stroke="#2B2A29" stroke-width="0.5" stroke-miterlimit="10"/>
<path d="M274.124 73.1287C273.048 73.1287 272.173 72.2513 272.173 71.1651C272.173 70.0801 273.048 69.2015 274.124 69.2015H278.527C279.602 69.2015 280.477 70.0799 280.477 71.1651C280.477 72.2515 279.603 73.1287 278.527 73.1287H274.124Z" fill="white" stroke="#2B2A29" stroke-width="0.5"/>
<path d="M271.923 71.1651C271.923 72.3881 272.909 73.3787 274.124 73.3787H278.527C279.742 73.3787 280.727 72.3881 280.727 71.1651C280.727 69.9434 279.742 68.9515 278.527 68.9515H274.124C272.909 68.9515 271.923 69.9434 271.923 71.1651Z" stroke="#2B2A29" stroke-width="0.5" stroke-miterlimit="10"/>
<path d="M312.223 102.298H312.991C314.726 102.298 316.136 100.879 316.136 99.1331L316.11 69.4873L308.226 46.6778C307.635 44.9677 306.029 43.8187 304.23 43.8187H271.168C269.434 43.8187 268.023 45.2373 268.023 46.9823V83.8492C268.023 85.5936 269.442 87.0129 271.185 87.0129H288.79C297.2 87.0129 305.424 92.2673 308.344 99.5076C309.028 101.202 310.551 102.298 312.223 102.298Z" stroke="#2B2A29" stroke-width="0.5" stroke-miterlimit="10"/>
<path d="M250.318 47.1432H261.162C262.498 47.1432 263.585 48.2337 263.585 49.5828V63.776C263.585 65.1252 262.498 66.2163 261.162 66.2163H250.318C248.981 66.2163 247.894 65.1252 247.894 63.776V49.5828C247.894 48.2337 248.981 47.1432 250.318 47.1432Z" fill="white" stroke="#2B2A29" stroke-width="0.5"/>
<path d="M250.318 46.8932H261.162C262.637 46.8932 263.835 48.097 263.835 49.5828V63.776C263.835 65.2618 262.637 66.4663 261.162 66.4663H250.318C248.842 66.4663 247.644 65.2618 247.644 63.776V49.5828C247.644 48.097 248.842 46.8932 250.318 46.8932Z" stroke="#2B2A29" stroke-width="0.5" stroke-miterlimit="10"/>
<path d="M236.994 81.471C236.994 82.9129 235.832 84.0801 234.403 84.0801H-126.154C-127.583 84.0801 -128.745 82.9128 -128.745 81.471V3.4939C-128.745 2.05217 -127.583 0.885513 -126.154 0.885513H234.403C235.832 0.885513 236.994 2.05214 236.994 3.4939V81.471Z" fill="white" stroke="#2B2A29" stroke-width="0.5"/>
<path d="M237.244 81.471C237.244 83.0494 235.971 84.3301 234.403 84.3301H-126.154C-127.723 84.3301 -128.995 83.0494 -128.995 81.471V3.4939C-128.995 1.91551 -127.723 0.635515 -126.154 0.635515H234.403C235.971 0.635515 237.244 1.91551 237.244 3.4939V81.471Z" stroke="#2B2A29" stroke-width="0.5" stroke-miterlimit="10"/>
<path d="M233.332 77.7541C233.332 79.0499 232.29 80.0963 231.007 80.0963H-122.37C-123.653 80.0963 -124.696 79.0498 -124.696 77.7541V7.0399C-124.696 5.74557 -123.653 4.69833 -122.37 4.69833H231.007C232.29 4.69833 233.332 5.74548 233.332 7.0399V77.7541Z" fill="white" stroke="#2B2A29" stroke-width="0.5"/>
<path d="M233.388 77.8388C233.388 79.2711 232.236 80.431 230.813 80.431H-122.564C-123.987 80.431 -125.14 79.2711 -125.14 77.8388V7.12462C-125.14 5.69371 -123.987 4.53305 -122.564 4.53305H230.813C232.236 4.53305 233.388 5.69371 233.388 7.12462V77.8388Z" stroke="#2B2A29" stroke-width="0.5" stroke-miterlimit="10"/>
<path d="M216.999 71.2705C215.662 71.2705 214.575 70.1799 214.575 68.8315V15.6601C214.575 14.3065 215.68 13.2211 217.03 13.2211C218.366 13.2211 219.453 14.3117 219.453 15.6601V68.8315C219.453 70.1844 218.347 71.2705 216.999 71.2705Z" fill="white" stroke="#2B2A29" stroke-width="0.5"/>
<path d="M214.325 68.8315C214.325 70.3166 215.523 71.5205 216.999 71.5205C218.483 71.5205 219.703 70.3249 219.703 68.8315V15.6601C219.703 14.175 218.505 12.9711 217.03 12.9711C215.544 12.9711 214.325 14.1661 214.325 15.6601V68.8315Z" stroke="#2B2A29" stroke-width="0.5" stroke-miterlimit="10"/>
<path d="M11.689 71.2705C10.3503 71.2705 9.26444 70.1799 9.26444 68.8315V15.6601C9.26444 14.3067 10.371 13.2211 11.7197 13.2211C13.0564 13.2211 14.1436 14.3118 14.1436 15.6601V68.8315C14.1436 70.1844 13.0376 71.2705 11.689 71.2705Z" fill="white" stroke="#2B2A29" stroke-width="0.5"/>
<path d="M9.01444 68.8315C9.01444 70.3166 10.2109 71.5205 11.689 71.5205C13.1732 71.5205 14.3936 70.3249 14.3936 68.8315V15.6601C14.3936 14.175 13.1957 12.9711 11.7197 12.9711C10.2355 12.9711 9.01444 14.1661 9.01444 15.6601V68.8315Z" stroke="#2B2A29" stroke-width="0.5" stroke-miterlimit="10"/>
<path d="M41.0181 71.2705C39.6815 71.2705 38.5949 70.1799 38.5949 68.8315V15.6601C38.5949 14.3066 39.7008 13.2211 41.0495 13.2211C42.386 13.2211 43.4727 14.3117 43.4727 15.6601V68.8315C43.4727 70.1845 42.3686 71.2705 41.0181 71.2705Z" fill="white" stroke="#2B2A29" stroke-width="0.5"/>
<path d="M38.3449 68.8315C38.3449 70.3166 39.5421 71.5205 41.0181 71.5205C42.5043 71.5205 43.7227 70.3249 43.7227 68.8315V15.6601C43.7227 14.175 42.5255 12.9711 41.0495 12.9711C39.5653 12.9711 38.3449 14.1661 38.3449 15.6601V68.8315Z" stroke="#2B2A29" stroke-width="0.5" stroke-miterlimit="10"/>
<path d="M70.348 71.2705C69.0102 71.2705 67.9255 70.1801 67.9255 68.8315V15.6601C67.9255 14.3065 69.0302 13.2211 70.3793 13.2211C71.7173 13.2211 72.8032 14.3117 72.8032 15.6601V68.8315C72.8032 70.1843 71.6973 71.2705 70.348 71.2705Z" fill="white" stroke="#2B2A29" stroke-width="0.5"/>
<path d="M67.6755 68.8315C67.6755 70.3166 68.8706 71.5205 70.348 71.5205C71.8329 71.5205 73.0532 70.3249 73.0532 68.8315V15.6601C73.0532 14.175 71.8567 12.9711 70.3793 12.9711C68.8944 12.9711 67.6755 14.1661 67.6755 15.6601V68.8315Z" stroke="#2B2A29" stroke-width="0.5" stroke-miterlimit="10"/>
<path d="M99.6777 71.2705C98.3417 71.2705 97.2545 70.1799 97.2545 68.8315V15.6601C97.2545 14.3066 98.359 13.2211 99.7104 13.2211C101.046 13.2211 102.134 14.3118 102.134 15.6601V68.8315C102.134 70.1842 101.028 71.2705 99.6777 71.2705Z" fill="white" stroke="#2B2A29" stroke-width="0.5"/>
<path d="M97.0045 68.8315C97.0045 70.3166 98.2023 71.5205 99.6777 71.5205C101.164 71.5205 102.384 70.3249 102.384 68.8315V15.6601C102.384 14.175 101.186 12.9711 99.7104 12.9711C98.2235 12.9711 97.0045 14.1661 97.0045 15.6601V68.8315Z" stroke="#2B2A29" stroke-width="0.5" stroke-miterlimit="10"/>
<path d="M129.007 71.2705C127.671 71.2705 126.585 70.18 126.585 68.8315V15.6601C126.585 14.3066 127.69 13.2211 129.039 13.2211C130.376 13.2211 131.464 14.3119 131.464 15.6601V68.8315C131.464 70.1842 130.359 71.2705 129.007 71.2705Z" fill="white" stroke="#2B2A29" stroke-width="0.5"/>
<path d="M126.335 68.8315C126.335 70.3166 127.532 71.5205 129.007 71.5205C130.494 71.5205 131.714 70.3249 131.714 68.8315V15.6601C131.714 14.175 130.515 12.9711 129.039 12.9711C127.555 12.9711 126.335 14.1661 126.335 15.6601V68.8315Z" stroke="#2B2A29" stroke-width="0.5" stroke-miterlimit="10"/>
<path d="M158.339 71.2705C157.001 71.2705 155.914 70.1798 155.914 68.8315V15.6601C155.914 14.3067 157.02 13.2211 158.371 13.2211C159.707 13.2211 160.793 14.3116 160.793 15.6601V68.8315C160.793 70.1844 159.688 71.2705 158.339 71.2705Z" fill="white" stroke="#2B2A29" stroke-width="0.5"/>
<path d="M155.664 68.8315C155.664 70.3166 156.862 71.5205 158.339 71.5205C159.824 71.5205 161.043 70.3249 161.043 68.8315V15.6601C161.043 14.175 159.847 12.9711 158.371 12.9711C156.885 12.9711 155.664 14.1661 155.664 15.6601V68.8315Z" stroke="#2B2A29" stroke-width="0.5" stroke-miterlimit="10"/>
<path d="M187.669 71.2705C186.333 71.2705 185.246 70.1799 185.246 68.8315V15.6601C185.246 14.3066 186.35 13.2211 187.701 13.2211C189.037 13.2211 190.124 14.3116 190.124 15.6601V68.8315C190.124 70.1843 189.018 71.2705 187.669 71.2705Z" fill="white" stroke="#2B2A29" stroke-width="0.5"/>
<path d="M184.996 68.8315C184.996 70.3166 186.193 71.5205 187.669 71.5205C189.154 71.5205 190.374 70.3249 190.374 68.8315V15.6601C190.374 14.175 189.177 12.9711 187.701 12.9711C186.215 12.9711 184.996 14.1661 184.996 15.6601V68.8315Z" stroke="#2B2A29" stroke-width="0.5" stroke-miterlimit="10"/>
<path d="M-43.6742 110.806H-46.5392L-46.5494 110.781H-46.7183H-49.7381C-49.871 99.2704 -59.1722 90.2612 -70.2848 90.2612C-80.6758 90.2612 -90.3564 98.1422 -90.8291 110.806H-99.6771C-101.014 110.806 -102.1 109.716 -102.1 108.366V91.6897C-102.1 90.3281 -100.965 89.2501 -99.5987 89.2501H-99.5115H-99.4219H-99.3299H-99.2356H-99.1389H-99.0399H-98.9386H-98.8349H-98.7289H-98.6206H-98.51H-98.3972H-98.282H-98.1646H-98.045H-97.923H-97.7989H-97.6725H-97.5439H-97.4131H-97.2801H-97.1449H-97.0075H-96.8679H-96.7262H-96.5823H-96.4362H-96.2881H-96.1378H-95.9854H-95.8309H-95.6743H-95.5155H-95.3548H-95.1919H-95.027H-94.86H-94.691H-94.52H-94.3469H-94.1718H-93.9948H-93.8157H-93.6346H-93.4516H-93.2665H-93.0796H-92.8906H-92.6998H-92.507H-92.3123H-92.1156H-91.9171H-91.7167H-91.5144H-91.3102H-91.1042H-90.8963H-90.6865H-90.4749H-90.2615H-90.0463H-89.8293H-89.6104H-89.3898H-89.1674H-88.9432H-88.7173H-88.4896H-88.2601H-88.029H-87.7961H-87.5615H-87.3251H-87.0871H-86.8474H-86.606H-86.363H-86.1183H-85.8719H-85.6239H-85.3743H-85.123H-84.8701H-84.6157H-84.3596H-84.102H-83.8427H-83.5819H-83.3196H-83.0557H-82.7903H-82.5233H-82.2548H-81.9848H-81.7133H-81.4404H-81.1659H-80.8899H-80.6125H-80.3337H-80.0534H-79.7716H-79.4885H-79.2039H-78.9179H-78.6305H-78.3418H-78.0516H-77.7601H-77.4672H-77.173H-76.8774H-76.5805H-76.2822H-75.9827H-75.6818H-75.3797H-75.0763H-74.7716H-74.4656H-74.1583H-73.8499H-73.5401H-73.2292H-72.917H-72.6036H-72.289H-71.9733H-71.6563H-71.3382H-71.0189H-70.6984H-70.3768H-70.0541H-69.7302H-69.4052H-69.0792H-68.752H-68.4237H-68.0943H-67.7639H-67.4324H-67.0999H-66.7663H-66.4317H-66.096H-65.7594H-65.4217H-65.083H-64.7434H-64.4028H-64.0612H-63.7186H-63.3751H-63.0307H-62.6853H-62.339H-61.9918H-61.6437H-61.2947H-60.9448H-60.594H-60.2424H-59.8899H-59.5366H-59.1824H-58.8274H-58.4716H-58.115H-57.7575H-57.3993H-57.0403H-56.6806H-56.32H-55.9587H-55.5967H-55.2339H-54.8705H-54.5063H-54.1413H-53.7757H-53.4094H-53.0425H-52.6748H-52.3065H-51.9375H-51.5679H-51.1977H-50.8269H-50.4554H-50.0833H-49.7107H-49.3374H-48.9636H-48.5892H-48.2142H-47.8388H-47.4627H-47.0862H-46.7091H-46.3315H-45.9534H-45.5748H-45.1957H-44.8162H-44.4362H-44.0557H-43.6748H-43.2934H-42.9117H-42.5295H-42.1469H-41.7639H-41.3805H-40.9968H-40.6126H-40.2281H-39.8433H-39.4581H-39.0726H-38.6867H-38.3006H-37.9141H-37.5273H-37.1403H-36.753H-36.3654H-35.9775H-35.5894H-35.2011H-34.8125H-34.4237H-34.0347H-33.6455H-33.2561H-32.8666H-32.4768H-32.0869H-31.6968H-31.3066H-30.9162H-30.5258H-30.1352H-29.7444H-29.3536H-28.9627H-28.5717H-28.1807H-27.7896H-27.3984H-27.0072H-26.616H-26.2247H-25.8334H-25.4421H-25.0508H-24.6595H-24.2683H-23.8771H-23.4859H-23.0947H-22.7037H-22.3127H-21.9217H-21.5309H-21.1402H-20.7495H-20.359H-19.9686H-19.5783H-19.1882H-18.7982H-18.4084H-18.0188H-17.6294H-17.2401H-16.851H-16.4622H-16.0735H-15.6851H-15.297H-14.909H-14.5214H-14.134H-13.7468H-13.36H-12.9734H-12.5872H-12.2012H-11.8156H-11.4303H-11.0454H-10.6608H-10.2765H-9.89264H-9.50914H-9.12603H-8.74331H-8.361H-7.9791H-7.59763H-7.21658H-6.83598H-6.45584H-6.07615H-5.69693H-5.3182H-4.93995H-4.5622H-4.18496H-3.80823H-3.43203H-3.05637H-2.68125H-2.30669H-1.93269H-1.55926H-1.18642H-0.814163H-0.442513H-0.0714722H0.298946H0.668739H1.0379H1.4064H1.77425H2.14143H2.50793H2.87376H3.23888H3.60331H3.96701H4.33H4.69226H5.05377H5.41454H5.77454H6.13377H6.49223H6.8499H7.20677H7.56283H7.91808H8.2725H8.62609H8.97883H9.33072H9.68175H10.0319H10.3812H10.7296H11.077H11.4236H11.7693H12.114H12.4578H12.8006H13.1425H13.4834H13.8234H14.1624H14.5003H14.8373H15.1733H15.5082H15.8421H16.1749H16.5068H16.8375H17.1672H17.4958H17.8233H18.1498H18.4751H18.7993H19.1224H19.4443H19.7651H20.0848H20.4033H20.7206H21.0367H21.3517H21.6654H21.978H22.2893H22.5994H22.9082H23.2159H23.5222H23.8273H24.1311H24.4337H24.7349H25.0349H25.3335H25.6308H25.9268H26.2215H26.5147H26.8067H27.0973H27.3865H27.6743H27.9607H28.2457H28.5293H28.8115H29.0922H29.3715H29.6493H29.9257H30.2007H30.4741H30.746H31.0165H31.2854H31.5529H31.8188H32.0831H32.346H32.6072H32.8669H33.1251H33.3816H33.6366H33.8899H34.1417H34.3918H34.6403H34.8872H35.1324H35.3759H35.6178H35.8581H36.0966H36.3334H36.5686H36.802H37.0337H37.2637H37.4919H37.7184H37.9431H38.166H38.3872H38.6066H38.8242H39.04H39.2539H39.4661H39.6764H39.8848H40.0914H40.2962H40.4991H40.7001H40.8992H41.0964H41.2917H41.4851H41.6765H41.866H42.0536H42.2392H42.4228H42.6045H42.7842H42.9619H43.1376H43.3113H43.4829H43.6526H43.8202H43.9857H44.1492H44.3106H44.4699H44.6272H44.7824H44.9354H45.0863H45.2352H45.3818H45.5264H45.6688H45.809H45.9471H46.0829H46.2166H46.3481H46.4774H46.6044H46.7293H46.8519H46.9722H47.0903H47.2062H47.3197H47.431H47.54H47.6467H47.7511H47.8531H47.9529H48.0502H48.1453H48.238H48.3283H48.4162H48.5018C49.8383 89.2501 50.9243 90.3405 50.9243 91.6897V108.341C50.9243 109.689 49.8394 110.781 48.5025 110.781H48.4952H48.4879H48.4806H48.4733H48.466H48.4587H48.4514H48.4441H48.4368H48.4295H48.4223H48.415H48.4077H48.4005H48.3932H48.386H48.3787H48.3715H48.3642H48.357H48.3498H48.3425H48.3353H48.3281H48.3208H48.3136H48.3064H48.2992H48.292H48.2848H48.2776H48.2704H48.2632H48.256H48.2488H48.2416H48.2344H48.2272H48.22H48.2129H48.2057H48.1985H48.1913H48.1842H48.177H48.1698H48.1627H48.1555H48.1483H48.1412H48.134H48.1269H48.1197H48.1126H48.1054H48.0983H48.0911H48.084H48.0769H48.0697H48.0626H48.0554H48.0483H48.0412H48.034H48.0269H48.0198H48.0127H48.0055H47.9984H47.9913H47.9842H47.977H47.9699H47.9628H47.9557H47.9486H47.9415H47.9343H47.9272H47.9201H47.913H47.9059H47.8988H47.8917H47.8845H47.8774H47.8703H47.8632H47.8561H47.849H47.8419H47.8348H47.8277H47.8206H47.8135H47.8063H47.7992H47.7921H47.785H47.7779H47.7708H47.7637H47.7566H47.7495H47.7424H47.7352H47.7281H47.721H47.7139H47.7068H47.6997H47.6926H47.6855H47.6783H47.6712H47.6641H47.657H47.6499H47.6427H47.6356H47.6285H47.6214H47.6142H47.6071H47.6H47.5929H47.5857H47.5786H47.5715H47.5643H47.5572H47.5501H47.5429H47.5358H47.5286H47.5215H47.5143H47.5072H47.5H47.4929H47.4857H47.4786H47.4714H47.4643H47.4571H47.4499H47.4428H47.4356H47.4284H47.4212H47.4141H47.4069H47.3997H47.3925H47.3853H47.3781H47.371H47.3638H47.3566H47.3494H47.3422H47.3349H47.3277H47.3205H47.3133H47.3061H47.2989H47.2916H47.2844H47.2772H47.2699H47.2627H47.2555H47.2482H47.241H47.2337H47.2265H47.2192H47.2119H47.2047H47.1974H47.1901H47.1829H47.1756H47.1683H47.161H47.1537H47.1464H47.1391H47.1318H47.1245H47.1172H47.1098H47.1025H47.0952H47.0879H47.0805H47.0732H47.0658H47.0585H47.0511H47.0438H47.0364H47.029H47.0217H47.0143H47.0069H46.9995H46.9921H46.9847H46.9773H46.9699H46.9625H46.9551H46.9476H46.9402H46.9328H46.9253H46.9179H46.9104H46.903H46.8955H46.888H46.8806H46.8731H46.8656H46.8581H46.8506H46.8431H46.8356H46.8281H46.8206H46.813H46.8055H46.7979H46.7904H46.7828H46.7753H46.7677H46.7602H46.7526H46.745H46.7374H46.7298H46.7222H46.7146H46.707H46.6993H46.6917H46.6841H46.6764H46.6688H46.6611H46.6534H46.6458H46.6381H46.6304H46.6227H46.615H46.6073H46.5996H46.5919H46.5841H46.5764H46.5686H46.5609H46.5531H46.5454H46.5376H46.5298H46.522H46.5142H46.5064H46.4986H46.4908H46.4829H46.4751H46.4672H46.4594H46.4515H46.4436H46.4358H46.4279H46.42H46.4121H46.4042H46.3962H46.3883H46.3804H46.3724H46.3645H46.3565H46.3485H46.3405H46.3325H46.3245H46.3165H46.3085H46.3005H46.2924H46.2844H46.2763H46.2683H46.2602H46.2521H46.244H46.2359H46.2278H46.2197H46.2116H46.2034H46.1953H46.1871H46.1789H46.1708H46.1626H46.1544H46.1462H46.138H46.1297H46.1215H46.1132H46.105H46.0967H46.0884H46.0801H46.0718H46.0635H46.0552H46.0469H46.0385H46.0302H46.0218H46.0135H46.0051H45.9967H45.9883H45.9799H45.9714H45.963H45.9546H45.9461H45.9376H45.9292H45.9207H45.9122H45.9036H45.8951H45.8866H45.878H45.8695H45.8609H45.8523H45.8437H45.8351H45.8265H45.8179H45.8092H45.8006H45.7919H45.7833H45.7746H45.7659H45.7572H45.7484H45.7397H45.731H45.7222H45.7134H45.7047H45.6959H45.6871H45.6782H45.6694H45.6606H45.6517H45.6428H45.634H45.6251H45.6162H45.6072H45.5983H45.5894H45.5804H45.5714H45.5624H45.5535H45.5444H45.5354H45.5264H45.5173H45.5083H45.4992H45.4901H45.481H45.4719H45.4628H45.4536H45.4445H45.4353H45.4261H45.4169H45.4077H45.3985H45.3893H45.38H45.3707H45.3615H45.3522H45.3429H45.3336H45.3242H45.3149H45.3055H45.2961H45.2867H45.2773H45.2679H45.2585H45.249H45.2396H45.2301H45.2206H45.2111H45.2016H45.192H45.1825H45.1729H45.1634H45.1538H45.1441H45.1345H45.1249H45.1152H45.1056H45.0959H45.0862H45.0765H45.0667H45.057H45.0472H45.0375H45.0277H45.0179H45.008H44.9982H44.9883H44.9785H44.9686H44.9587H44.9488H44.9388H44.9289H44.9189H44.9089H44.899H44.8889H44.8789H44.8689H44.8588H44.8487H44.8386H44.8285H44.8184H44.8083H44.7981H44.7879H44.7777H44.7675H44.7573H44.7471H44.7368H44.7265H44.7162H44.7059H44.6956H44.6853H44.6749H44.6645H44.6541H44.6437H44.6333H44.6229H44.6124H44.6019H44.5914H44.5809H44.5734C44.4893 99.4356 35.3227 90.2612 24.0244 90.2612C13.6154 90.2612 3.94638 98.1737 3.48203 110.781H3.45681H3.40479H3.35324H3.30217H3.25157H3.20145H3.15179H3.1026H3.05387H3.00562H2.95782H2.91048H2.8636H2.81717H2.7712H2.72568H2.68061H2.63599H2.59182H2.54809H2.5048H2.46196H2.41955H2.37758H2.33604H2.29494H2.25427H2.21403H2.17422H2.13483H2.09586H2.05732H2.0192H1.98149H1.9442H1.90733H1.87086H1.83482H1.79917H1.76393H1.7291H1.69467H1.66064H1.62701H1.59378H1.56094H1.52849H1.49644H1.46478H1.4335H1.40261H1.3721H1.34197H1.31223H1.28286H1.25387H1.22525H1.197H1.16913H1.14162H1.11448H1.0877H1.06129H1.03524H1.00955H0.984211H0.959229H0.934601H0.910324H0.899128H0.899059H0.898903H0.898766H0.898495H0.8983H0.897911H0.897667H0.897144H0.89687H0.896194H0.895908H0.895058H0.894783H0.893738H0.893497H0.892223H0.892052H0.890522H0.89045H0.888695H0.888626H0.886784H0.886536H0.886398H0.884724H0.884251H0.882515H0.881763H0.880161H0.879078H0.877659H0.87619H0.875011H0.873096H0.872227H0.869797H0.869297H0.866291H0.866234H0.863033H0.86282H0.862572H0.859699H0.858643H0.856236H0.8545H0.852638H0.850143H0.848915H0.845566H0.845062H0.841087H0.840771H0.839584H0.83699H0.835751H0.832771H0.830509H0.828438H0.825047H0.823982H0.819416H0.819351H0.816696H0.814732H0.813431H0.80994H0.807278H0.805038H0.800888H0.80003H0.794914H0.79427H0.794147H0.789696H0.787411H0.784378H0.780315H0.778957H0.773441H0.77298H0.771938H0.76783H0.7654H0.762123H0.757576H0.756325H0.750435H0.750069H0.749504H0.744457H0.741188H0.738392H0.73262H0.732246H0.728535H0.726013H0.723801H0.719704H0.714725H0.713314H0.707333H0.706848H0.705399H0.700306H0.695812H0.693691H0.687004H0.686466H0.685966H0.680248H0.675858H0.673428H0.666538H0.665928H0.665485H0.659588H0.65485H0.652576H0.645721H0.645504H0.643948H0.638371H0.632774H0.631187H0.625839H0.623947H0.62133H0.616653H0.609615H0.60931H0.606281H0.601921H0.597626H0.594482H0.587044H0.587002H0.585358H0.579475H0.572811H0.571911H0.56813H0.564308H0.559982H0.556667H0.549538H0.548992H0.546875H0.541283H0.533543H0.533482H0.531258H0.525772H0.519802H0.517975H0.513294H0.510155H0.505836H0.502308H0.495647H0.494442H0.491577H0.486553H0.478649H0.47831H0.477028H0.47073H0.462795H0.462185H0.461281H0.454845H0.447048H0.446892H0.444557H0.438923H0.43161H0.430954H0.428143H0.422977H0.415874H0.414997H0.412029H0.407017H0.399837H0.39904H0.396221H0.391064H0.383495H0.383095H0.380711H0.37513H0.367176H0.366852H0.365501H0.35923H0.351299H0.350582H0.349899H0.343384H0.335964H0.335484H0.332638H0.327599H0.321632H0.319736H0.315063H0.311897H0.307594H0.304081H0.29718H0.296291H0.293846H0.288528H0.280796H0.28038H0.27898H0.273098H0.2672H0.26543H0.260464H0.257797H0.254307H0.250202H0.242649H0.241692H0.241627H0.235134H0.229355H0.227661H0.222473H0.220238H0.217297H0.212856H0.205513H0.202995H0.198246H0.194004H0.191021H0.183846H0.183193H0.182762H0.176731H0.171795H0.169674H0.163063H0.162674H0.161091H0.155739H0.150654H0.148869H0.142609H0.142059H0.140484H0.135323H0.130573H0.128654H0.122059H0.121822H0.120922H0.115536H0.11153H0.109085H0.102715H0.102394H0.100704H0.0964241H0.0935097H0.0902138H0.0848808H0.0840874H0.0792503H0.0780449H0.0765038H0.0720863H0.0683708H0.0662193H0.0604897H0.0604439H0.0574646H0.05476H0.0528488H0.0491714H0.0454521H0.0436783H0.0382957H0.0353394H0.0329895H0.0313797H0.0277977H0.0247002H0.0227089H0.0182571H0.0177269H0.0128517H0.0120468H0.00808334H0.00606918H0.00342941H0.000320435H-0.00111008H-0.00520325H-0.00553513H-0.00984192H-0.00992966H-0.010498H-0.0140305H-0.0155716H-0.0180969H-0.0204239H-0.0220413H-0.0250511H-0.0258636H-0.0294647H-0.0295563H-0.0330811H-0.0331192H-0.0336609H-0.0365524H-0.0376434H-0.039856H-0.0414124H-0.0430222H-0.0449715H-0.046051H-0.0483208H-0.0489426H-0.0514641H-0.0516968H-0.054306H-0.0544052H-0.056572H-0.0567703H-0.0571404H-0.0590935H-0.0596733H-0.061264H-0.0620117H-0.0632896H-0.0641479H-0.0651588H-0.0660934H-0.0668793H-0.0678406H-0.0684395H-0.0694008H-0.0698471H-0.0707703H-0.0710945H-0.071949H-0.0721779H-0.0729446H-0.073101H-0.0737572H-0.0738602H-0.0743866H-0.0744476H-0.0748367H-0.0748711H-0.0751076H-0.0752029H-0.0804138H-0.104607H-0.129147H-0.154041H-0.179287H-0.204891H-0.230858H-0.257179H-0.283867H-0.310917H-0.338333H-0.366116H-0.394272H-0.422798H-0.451698H-0.480972H-0.510624H-0.540657H-0.571072H-0.601868H-0.633049H-0.664619H-0.696575H-0.728924H-0.761665H-0.7948H-0.828335H-0.862267H-0.896595H-0.931328H-0.966465H-1.00201H-1.03796H-1.07432H-1.1111H-1.14828H-1.18589H-1.22391H-1.26234H-1.3012H-1.34049H-1.3802H-1.42033H-1.4609H-1.50189H-1.54332H-1.58518H-1.62748H-1.67022H-1.7134H-1.75702H-1.80108H-1.84559H-1.89055H-1.93596H-1.98182H-2.02813H-2.0749H-2.12213H-2.16981H-2.21796H-2.26657H-2.31564H-2.36518H-2.4152H-2.46568H-2.51663H-2.56806H-2.58371C-2.77494 92.8149 -23.5628 84.0729 -36.475 95.2039C-40.671 98.8065 -43.4287 104.217 -43.6742 110.806Z" fill="white" stroke="#2B2A29" stroke-width="0.5"/>
<path d="M-99.5987 89.0001C-84.9176 89.0001 34.1043 89.0001 48.5018 89.0001C49.9778 89.0001 51.1743 90.2039 51.1743 91.6897V108.341C51.1743 109.826 49.9792 111.031 48.5025 111.031C47.2542 111.031 46.1926 111.031 44.3232 111.031C44.3232 110.999 44.3239 110.97 44.3239 110.938C44.3239 99.6571 35.2353 90.5112 24.0244 90.5112C13.6786 90.5112 4.06843 98.4231 3.72414 111.031C-5.60786 111.031 6.39599 111.031 -2.83238 111.031C-2.83238 93.1151 -23.498 84.3472 -36.3118 95.3932C-40.504 98.9924 -43.2481 104.425 -43.4322 111.056H-46.7081L-46.7183 111.031H-49.9866C-49.9866 99.5391 -59.23 90.5112 -70.2848 90.5112C-80.6122 90.5112 -90.234 98.3908 -90.5871 111.056H-99.6771C-101.154 111.056 -102.35 109.853 -102.35 108.366V91.6897C-102.35 90.182 -101.095 89.0001 -99.5987 89.0001Z" stroke="#2B2A29" stroke-width="0.5" stroke-miterlimit="10"/>
<path d="M204.65 117.544C203.313 117.544 202.227 116.453 202.227 115.105V96.331C202.227 94.9831 203.313 93.892 204.65 93.892H235.944C237.28 93.892 238.367 94.9832 238.367 96.331V115.105C238.367 116.453 237.28 117.544 235.944 117.544H204.65Z" fill="white" stroke="#2B2A29" stroke-width="0.5"/>
<path d="M201.977 115.105C201.977 116.59 203.173 117.794 204.65 117.794H235.944C237.42 117.794 238.617 116.59 238.617 115.105V96.331C238.617 94.8465 237.42 93.642 235.944 93.642H204.65C203.173 93.642 201.977 94.8465 201.977 96.331V115.105Z" stroke="#2B2A29" stroke-width="0.5" stroke-miterlimit="10"/>
<path d="M210.984 119.526C210.212 119.526 209.583 118.895 209.583 118.116V93.6811C209.583 92.9016 210.212 92.2711 210.984 92.2711C211.756 92.2711 212.384 92.9012 212.384 93.6811V118.116C212.384 118.896 211.756 119.526 210.984 119.526Z" fill="white" stroke="#2B2A29" stroke-width="0.5"/>
<path d="M209.333 118.116C209.333 119.032 210.073 119.776 210.984 119.776C211.895 119.776 212.634 119.032 212.634 118.116V93.6811C212.634 92.7647 211.895 92.0211 210.984 92.0211C210.073 92.0211 209.333 92.7647 209.333 93.6811V118.116Z" stroke="#2B2A29" stroke-width="0.5" stroke-miterlimit="10"/>
<path d="M220.297 119.526C219.525 119.526 218.896 118.895 218.896 118.116V93.6811C218.896 92.9015 219.525 92.2711 220.297 92.2711C221.069 92.2711 221.697 92.9012 221.697 93.6811V118.116C221.697 118.896 221.069 119.526 220.297 119.526Z" fill="white" stroke="#2B2A29" stroke-width="0.5"/>
<path d="M218.646 118.116C218.646 119.032 219.385 119.776 220.297 119.776C221.208 119.776 221.947 119.032 221.947 118.116V93.6811C221.947 92.7647 221.208 92.0211 220.297 92.0211C219.385 92.0211 218.646 92.7647 218.646 93.6811V118.116Z" stroke="#2B2A29" stroke-width="0.5" stroke-miterlimit="10"/>
<path d="M229.609 119.526C228.838 119.526 228.209 118.896 228.209 118.116V93.6811C228.209 92.9013 228.838 92.2711 229.609 92.2711C230.383 92.2711 231.01 92.9012 231.01 93.6811V118.116C231.01 118.896 230.382 119.526 229.609 119.526Z" fill="white" stroke="#2B2A29" stroke-width="0.5"/>
<path d="M227.959 118.116C227.959 119.032 228.698 119.776 229.609 119.776C230.522 119.776 231.26 119.032 231.26 118.116V93.6811C231.26 92.7647 230.522 92.0211 229.609 92.0211C228.698 92.0211 227.959 92.7647 227.959 93.6811V118.116Z" stroke="#2B2A29" stroke-width="0.5" stroke-miterlimit="10"/>
<path d="M175.176 128.115C165.716 128.115 158.046 120.398 158.046 110.875C158.046 101.352 165.716 93.6347 175.176 93.6347C184.639 93.6347 192.31 101.352 192.31 110.875C192.31 120.398 184.639 128.115 175.176 128.115Z" fill="white" stroke="#2B2A29" stroke-width="0.5"/>
<path d="M157.796 110.875C157.796 120.534 165.576 128.365 175.176 128.365C184.778 128.365 192.56 120.534 192.56 110.875C192.56 101.215 184.778 93.3847 175.176 93.3847C165.576 93.3847 157.796 101.215 157.796 110.875Z" stroke="#2B2A29" stroke-width="0.5" stroke-miterlimit="10"/>
<path d="M175.176 122.481C168.808 122.481 163.643 117.287 163.643 110.875C163.643 104.463 168.808 99.2672 175.176 99.2672C181.546 99.2672 186.712 104.463 186.712 110.875C186.712 117.287 181.546 122.481 175.176 122.481Z" fill="white" stroke="#2B2A29" stroke-width="0.5"/>
<path d="M163.393 110.875C163.393 117.423 168.668 122.731 175.176 122.731C181.686 122.731 186.962 117.423 186.962 110.875C186.962 104.326 181.686 99.0172 175.176 99.0172C168.668 99.0172 163.393 104.326 163.393 110.875Z" stroke="#2B2A29" stroke-width="0.5" stroke-miterlimit="10"/>
<path d="M175.176 120.179C170.072 120.179 165.932 116.014 165.932 110.875C165.932 105.735 170.072 101.571 175.176 101.571C180.282 101.571 184.423 105.736 184.423 110.875C184.423 116.014 180.282 120.179 175.176 120.179Z" fill="white" stroke="#2B2A29" stroke-width="0.5"/>
<path d="M165.682 110.875C165.682 116.151 169.933 120.429 175.176 120.429C180.421 120.429 184.673 116.151 184.673 110.875C184.673 105.599 180.421 101.321 175.176 101.321C169.933 101.321 165.682 105.599 165.682 110.875Z" stroke="#2B2A29" stroke-width="0.5" stroke-miterlimit="10"/>
<path d="M175.176 116.147C172.286 116.147 169.94 113.788 169.94 110.875C169.94 107.961 172.286 105.603 175.176 105.603C178.069 105.603 180.416 107.962 180.416 110.875C180.416 113.788 178.069 116.147 175.176 116.147Z" fill="white" stroke="#2B2A29" stroke-width="0.5"/>
<path d="M169.69 110.875C169.69 113.925 172.147 116.397 175.176 116.397C178.208 116.397 180.666 113.925 180.666 110.875C180.666 107.825 178.208 105.353 175.176 105.353C172.147 105.353 169.69 107.825 169.69 110.875Z" stroke="#2B2A29" stroke-width="0.5" stroke-miterlimit="10"/>
<path d="M127.658 128.115C118.198 128.115 110.527 120.398 110.527 110.875C110.527 101.352 118.198 93.6347 127.658 93.6347C137.121 93.6347 144.792 101.352 144.792 110.875C144.792 120.398 137.121 128.115 127.658 128.115Z" fill="white" stroke="#2B2A29" stroke-width="0.5"/>
<path d="M110.277 110.875C110.277 120.534 118.058 128.365 127.658 128.365C137.26 128.365 145.042 120.534 145.042 110.875C145.042 101.215 137.26 93.3847 127.658 93.3847C118.058 93.3847 110.277 101.215 110.277 110.875Z" stroke="#2B2A29" stroke-width="0.5" stroke-miterlimit="10"/>
<path d="M127.658 122.481C121.29 122.481 116.125 117.287 116.125 110.875C116.125 104.463 121.29 99.2672 127.658 99.2672C134.028 99.2672 139.194 104.463 139.194 110.875C139.194 117.287 134.028 122.481 127.658 122.481Z" fill="white" stroke="#2B2A29" stroke-width="0.5"/>
<path d="M115.875 110.875C115.875 117.423 121.151 122.731 127.658 122.731C134.168 122.731 139.444 117.423 139.444 110.875C139.444 104.326 134.168 99.0172 127.658 99.0172C121.151 99.0172 115.875 104.326 115.875 110.875Z" stroke="#2B2A29" stroke-width="0.5" stroke-miterlimit="10"/>
<path d="M127.658 120.179C122.555 120.179 118.414 116.014 118.414 110.875C118.414 105.735 122.555 101.571 127.658 101.571C132.764 101.571 136.905 105.736 136.905 110.875C136.905 116.014 132.764 120.179 127.658 120.179Z" fill="white" stroke="#2B2A29" stroke-width="0.5"/>
<path d="M118.164 110.875C118.164 116.151 122.416 120.429 127.658 120.429C132.903 120.429 137.155 116.151 137.155 110.875C137.155 105.599 132.903 101.321 127.658 101.321C122.416 101.321 118.164 105.599 118.164 110.875Z" stroke="#2B2A29" stroke-width="0.5" stroke-miterlimit="10"/>
<path d="M127.658 116.147C124.769 116.147 122.422 113.788 122.422 110.875C122.422 107.961 124.769 105.603 127.658 105.603C130.551 105.603 132.898 107.962 132.898 110.875C132.898 113.788 130.551 116.147 127.658 116.147Z" fill="white" stroke="#2B2A29" stroke-width="0.5"/>
<path d="M122.172 110.875C122.172 113.925 124.629 116.397 127.658 116.397C130.69 116.397 133.148 113.925 133.148 110.875C133.148 107.825 130.69 105.353 127.658 105.353C124.629 105.353 122.172 107.825 122.172 110.875Z" stroke="#2B2A29" stroke-width="0.5" stroke-miterlimit="10"/>
<path d="M24.1572 128.115C14.6968 128.115 7.02695 120.398 7.02695 110.875C7.02695 101.352 14.6968 93.6347 24.1572 93.6347C33.6203 93.6347 41.2915 101.352 41.2915 110.875C41.2915 120.398 33.6203 128.115 24.1572 128.115Z" fill="white" stroke="#2B2A29" stroke-width="0.5"/>
<path d="M6.77695 110.875C6.77695 120.534 14.5572 128.365 24.1572 128.365C33.7598 128.365 41.5415 120.534 41.5415 110.875C41.5415 101.215 33.7598 93.3847 24.1572 93.3847C14.5572 93.3847 6.77695 101.215 6.77695 110.875Z" stroke="#2B2A29" stroke-width="0.5" stroke-miterlimit="10"/>
<path d="M24.1573 122.481C17.7894 122.481 12.6244 117.287 12.6244 110.875C12.6244 104.463 17.7894 99.2672 24.1573 99.2672C30.5273 99.2672 35.6943 104.463 35.6943 110.875C35.6943 117.287 30.5273 122.481 24.1573 122.481Z" fill="white" stroke="#2B2A29" stroke-width="0.5"/>
<path d="M12.3744 110.875C12.3744 117.423 17.6498 122.731 24.1573 122.731C30.6668 122.731 35.9443 117.423 35.9443 110.875C35.9443 104.326 30.6668 99.0172 24.1573 99.0172C17.6498 99.0172 12.3744 104.326 12.3744 110.875Z" stroke="#2B2A29" stroke-width="0.5" stroke-miterlimit="10"/>
<path d="M24.1576 120.179C19.0551 120.179 14.914 116.014 14.914 110.875C14.914 105.735 19.055 101.571 24.1576 101.571C29.2636 101.571 33.4053 105.736 33.4053 110.875C33.4053 116.014 29.2636 120.179 24.1576 120.179Z" fill="white" stroke="#2B2A29" stroke-width="0.5"/>
<path d="M14.664 110.875C14.664 116.151 18.9155 120.429 24.1576 120.429C29.4031 120.429 33.6553 116.151 33.6553 110.875C33.6553 105.599 29.4031 101.321 24.1576 101.321C18.9155 101.321 14.664 105.599 14.664 110.875Z" stroke="#2B2A29" stroke-width="0.5" stroke-miterlimit="10"/>
<path d="M24.1574 116.147C21.2679 116.147 18.9213 113.789 18.9213 110.875C18.9213 107.961 21.2679 105.603 24.1574 105.603C27.0504 105.603 29.397 107.962 29.397 110.875C29.397 113.788 27.0504 116.147 24.1574 116.147Z" fill="white" stroke="#2B2A29" stroke-width="0.5"/>
<path d="M18.6713 110.875C18.6713 113.925 21.1283 116.397 24.1574 116.397C27.1899 116.397 29.647 113.925 29.647 110.875C29.647 107.825 27.1899 105.353 24.1574 105.353C21.1283 105.353 18.6713 107.825 18.6713 110.875Z" stroke="#2B2A29" stroke-width="0.5" stroke-miterlimit="10"/>
</g>
<defs>
<clipPath id="clip0_123_1717">
<rect width="326" height="129" fill="white" transform="matrix(-1 0 0 1 326 0)"/>
</clipPath>
</defs>
</svg>
