<svg width="32" height="30" viewBox="0 0 32 30" fill="none" xmlns="http://www.w3.org/2000/svg">
<path d="M3.19989 28.945L4.9665 22.495L5.04917 22.1932L4.89282 21.9221C3.65526 19.7766 3.00522 17.3427 3.00821 14.8659L3.00821 14.8653C3.01147 7.08283 9.34605 0.750207 17.1288 0.75L3.19989 28.945ZM3.19989 28.945L9.82623 27.2074L10.1142 27.1319L10.3755 27.2744C12.4372 28.3985 14.7591 28.9915 17.1225 28.9925C17.1226 28.9925 17.1227 28.9925 17.1228 28.9925H17.129C24.9106 28.9925 31.2465 22.6587 31.25 14.8766L3.19989 28.945ZM17.1292 0.75C20.9082 0.75198 24.4508 2.22098 27.118 4.89C29.7853 7.55913 31.2513 11.1032 31.25 14.8766L17.1292 0.75Z" stroke="#00A0E3" stroke-width="1.5"/>
<path fill-rule="evenodd" clip-rule="evenodd" d="M13.397 9.18015C13.1216 8.61225 12.8318 8.60074 12.5702 8.59091L11.8659 8.58293C11.6209 8.58293 11.2227 8.66828 10.8862 9.00965C10.5496 9.35103 9.6001 10.1761 9.6001 11.8542C9.6001 13.5323 10.9168 15.1539 11.1002 15.3817C11.2837 15.6095 13.642 19.163 17.3767 20.5302C20.4803 21.6664 21.1119 21.4404 21.7858 21.3836C22.4597 21.3268 23.9596 20.5586 24.2656 19.7621C24.5716 18.9656 24.5718 18.2832 24.4801 18.1405C24.3883 17.9979 24.1433 17.9131 23.7756 17.7424C23.4078 17.5717 21.6017 16.7467 21.265 16.6327C20.9282 16.5188 20.6834 16.4622 20.4381 16.8036C20.1929 17.145 19.4896 17.9129 19.2752 18.1405C19.0607 18.3682 18.8467 18.3968 18.4789 18.2263C18.1112 18.0558 16.9281 17.6955 15.5243 16.5335C14.432 15.6294 13.6948 14.5129 13.4801 14.1717C13.2655 13.8305 13.4573 13.6457 13.6416 13.4757C13.8065 13.3229 14.0089 13.0774 14.193 12.8783C14.3771 12.6793 14.4376 12.537 14.56 12.3097C14.6823 12.0824 14.6213 11.8828 14.5294 11.7123C14.4374 11.5418 13.7236 9.85474 13.397 9.18015Z" fill="#00A0E3"/>
</svg>
