<svg width="70" height="70" viewBox="0 0 70 70" fill="none" xmlns="http://www.w3.org/2000/svg">
<rect width="70" height="70" rx="35" fill="#2F2F2F"/>
<path d="M50 36.5C50.8284 36.5 51.5 35.8284 51.5 35C51.5 34.1716 50.8284 33.5 50 33.5V36.5ZM18.9393 33.9393C18.3536 34.5251 18.3536 35.4749 18.9393 36.0607L28.4853 45.6066C29.0711 46.1924 30.0208 46.1924 30.6066 45.6066C31.1924 45.0208 31.1924 44.0711 30.6066 43.4853L22.1213 35L30.6066 26.5147C31.1924 25.9289 31.1924 24.9792 30.6066 24.3934C30.0208 23.8076 29.0711 23.8076 28.4853 24.3934L18.9393 33.9393ZM50 33.5H20V36.5H50V33.5Z" fill="white"/>
</svg>
