<svg width="70" height="70" viewBox="0 0 70 70" fill="none" xmlns="http://www.w3.org/2000/svg">
<rect width="70" height="70" rx="35" fill="#1472D0"/>
<path d="M20 33.5C19.1716 33.5 18.5 34.1716 18.5 35C18.5 35.8284 19.1716 36.5 20 36.5V33.5ZM51.0607 36.0607C51.6464 35.4749 51.6464 34.5251 51.0607 33.9393L41.5147 24.3934C40.9289 23.8076 39.9792 23.8076 39.3934 24.3934C38.8076 24.9792 38.8076 25.9289 39.3934 26.5147L47.8787 35L39.3934 43.4853C38.8076 44.0711 38.8076 45.0208 39.3934 45.6066C39.9792 46.1924 40.9289 46.1924 41.5147 45.6066L51.0607 36.0607ZM20 36.5H50V33.5H20V36.5Z" fill="white"/>
</svg>
