<svg width="50" height="51" viewBox="0 0 50 51" fill="none" xmlns="http://www.w3.org/2000/svg">
<rect y="0.570312" width="50" height="50" rx="25" fill="white"/>
<path d="M35 26.5703C35.5523 26.5703 36 26.1226 36 25.5703C36 25.018 35.5523 24.5703 35 24.5703V26.5703ZM14.2929 24.8632C13.9024 25.2537 13.9024 25.8869 14.2929 26.2774L20.6569 32.6414C21.0474 33.0319 21.6805 33.0319 22.0711 32.6414C22.4616 32.2509 22.4616 31.6177 22.0711 31.2272L16.4142 25.5703L22.0711 19.9135C22.4616 19.5229 22.4616 18.8898 22.0711 18.4992C21.6805 18.1087 21.0474 18.1087 20.6569 18.4992L14.2929 24.8632ZM35 24.5703H15V26.5703H35V24.5703Z" fill="#B4CDED"/>
</svg>
