<svg width="30" height="28" viewBox="0 0 30 28" fill="none" xmlns="http://www.w3.org/2000/svg">
<path d="M3.06781 26.9461L4.70111 21.0094L4.78448 20.7064L4.62693 20.4344C3.47123 18.4397 2.86431 16.1772 2.8671 13.8749L2.8671 13.8743C2.87014 6.64142 8.78467 0.750205 16.0583 0.75L3.06781 26.9461ZM3.06781 26.9461L9.20103 25.345L9.4878 25.2701L9.74828 25.4115C11.6744 26.4571 13.8439 27.0087 16.0524 27.0097C16.0525 27.0097 16.0526 27.0097 16.0527 27.0097H16.0585C23.331 27.0097 29.2468 21.1173 29.25 13.8848M3.06781 26.9461L16.0586 0.75C19.5901 0.751846 22.8997 2.11845 25.3912 4.60053C27.8826 7.0826 29.2513 10.3773 29.25 13.8848M29.25 13.8848L30 13.8851M29.25 13.8848L30 13.8851M30 13.8851C29.9966 21.5348 23.7421 27.7597 16.0585 27.7597H16.0524M30 13.8851C30.0013 10.1777 28.5529 6.69177 25.9205 4.0692L16.0524 27.7597M16.0524 27.7597C13.7193 27.7587 11.4268 27.176 9.39047 26.0707L16.0524 27.7597Z" stroke="#2F2F2F" stroke-width="1.5"/>
<path fill-rule="evenodd" clip-rule="evenodd" d="M12.5596 8.56815C12.3014 8.0381 12.0297 8.02737 11.7844 8.01819L11.1242 8.01074C10.8945 8.01074 10.5212 8.0904 10.2057 8.40901C9.89018 8.72763 9 9.49768 9 11.0639C9 12.6302 10.2344 14.1436 10.4064 14.3563C10.5784 14.5689 12.7893 17.8855 16.2906 19.1615C19.2002 20.2219 19.7923 20.011 20.4241 19.958C21.0559 19.9051 22.4621 19.188 22.7489 18.4446C23.0358 17.7012 23.036 17.0643 22.95 16.9312C22.864 16.798 22.6343 16.7189 22.2895 16.5596C21.9447 16.4003 20.2515 15.6302 19.9358 15.5239C19.6201 15.4176 19.3906 15.3648 19.1607 15.6834C18.9308 16.002 18.2714 16.7187 18.0704 16.9312C17.8693 17.1436 17.6687 17.1703 17.3239 17.0112C16.9792 16.852 15.87 16.5158 14.5539 15.4313C13.5299 14.5874 12.8388 13.5453 12.6375 13.2269C12.4363 12.9085 12.6162 12.736 12.7889 12.5774C12.9435 12.4347 13.1333 12.2056 13.3059 12.0198C13.4784 11.834 13.5352 11.7012 13.6499 11.489C13.7645 11.2769 13.7074 11.0906 13.6212 10.9315C13.535 10.7723 12.8657 9.19777 12.5596 8.56815Z" fill="#2F2F2F"/>
</svg>
