<svg width="50" height="50" viewBox="0 0 50 50" fill="none" xmlns="http://www.w3.org/2000/svg">
<path d="M32.4535 7.04579L36.6202 9.23235C41.1028 11.5847 43.3441 12.7609 44.5887 14.8745C45.8333 16.988 45.8333 19.6181 45.8333 24.8782V25.1219C45.8333 30.382 45.8333 33.012 44.5887 35.1256C43.3441 37.2391 41.1028 38.4153 36.6202 40.7677L32.4535 42.9543C28.796 44.8737 26.9672 45.8334 25 45.8334C23.0327 45.8334 21.2039 44.8737 17.5464 42.9543L13.3797 40.7677C8.8971 38.4153 6.65578 37.2391 5.4112 35.1256C4.16663 33.012 4.16663 30.382 4.16663 25.1219V24.8782C4.16663 19.6181 4.16663 16.988 5.4112 14.8745C6.65578 12.7609 8.8971 11.5847 13.3797 9.23235L17.5464 7.04578C21.2039 5.12639 23.0327 4.16669 25 4.16669C26.9672 4.16669 28.796 5.12639 32.4535 7.04579Z" stroke="#1472D0" stroke-width="3" stroke-linecap="round"/>
<path d="M43.75 15.625L35.4167 19.7917M25 25L6.25 15.625M25 25V44.7917M25 25C25 25 30.7138 22.1431 34.375 20.3125C34.7818 20.1091 35.4167 19.7917 35.4167 19.7917M35.4167 19.7917V27.0833M35.4167 19.7917L15.625 9.375" stroke="#1472D0" stroke-width="3" stroke-linecap="round"/>
</svg>
