<svg width="50" height="50" viewBox="0 0 50 50" fill="none" xmlns="http://www.w3.org/2000/svg">
<path d="M14.5833 37.4964C10.052 37.4711 7.59801 37.2702 5.99721 35.6694C4.16663 33.8388 4.16663 30.8925 4.16663 25L4.16663 16.6667C4.16663 10.7741 4.16663 7.82782 5.99721 5.99724C7.82779 4.16666 10.7741 4.16666 16.6666 4.16666L33.3333 4.16666C39.2259 4.16666 42.1721 4.16666 44.0027 5.99724C45.8333 7.82782 45.8333 10.7741 45.8333 16.6667V25C45.8333 30.8925 45.8333 33.8388 44.0027 35.6694C42.4822 37.19 40.1918 37.4475 36.0826 37.4911L34.375 37.4964" stroke="#1472D0" stroke-width="3"/>
<path d="M18.75 12.5L31.25 12.5" stroke="#1472D0" stroke-width="3" stroke-linecap="round"/>
<path d="M14.5834 19.7917H35.4167" stroke="#1472D0" stroke-width="3" stroke-linecap="round"/>
<path d="M22.6889 29.0529C24.0206 27.9179 25.9794 27.9179 27.3111 29.0529C27.8818 29.5392 28.5914 29.8331 29.3388 29.8928C31.083 30.0319 32.468 31.417 32.6072 33.1612C32.6669 33.9086 32.9608 34.6182 33.4471 35.1889C34.582 36.5206 34.582 38.4794 33.4471 39.8111C32.9608 40.3818 32.6669 41.0914 32.6072 41.8388C32.468 43.583 31.083 44.9681 29.3388 45.1072C28.5914 45.1669 27.8818 45.4608 27.3111 45.9471C25.9794 47.0821 24.0206 47.0821 22.6889 45.9471C22.1182 45.4608 21.4086 45.1669 20.6612 45.1072C18.917 44.9681 17.5319 43.583 17.3927 41.8388C17.3331 41.0914 17.0392 40.3818 16.5528 39.8111C15.4179 38.4794 15.4179 36.5206 16.5528 35.1889C17.0392 34.6182 17.3331 33.9086 17.3927 33.1612C17.5319 31.417 18.917 30.0319 20.6612 29.8928C21.4086 29.8331 22.1182 29.5392 22.6889 29.0529Z" stroke="#1472D0" stroke-width="3"/>
<path d="M21.875 37.9167L23.6607 39.5833L28.125 35.4167" stroke="#1472D0" stroke-width="3" stroke-linecap="round" stroke-linejoin="round"/>
</svg>
