<svg width="70" height="71" viewBox="0 0 70 71" fill="none" xmlns="http://www.w3.org/2000/svg">
<rect x="1.5" y="2.47852" width="67" height="67" rx="33.5" stroke="#B4CDED" stroke-width="3"/>
<path d="M50 37.4785C50.8284 37.4785 51.5 36.8069 51.5 35.9785C51.5 35.1501 50.8284 34.4785 50 34.4785V37.4785ZM18.9393 34.9179C18.3536 35.5036 18.3536 36.4534 18.9393 37.0392L28.4853 46.5851C29.0711 47.1709 30.0208 47.1709 30.6066 46.5851C31.1924 45.9993 31.1924 45.0496 30.6066 44.4638L22.1213 35.9785L30.6066 27.4932C31.1924 26.9074 31.1924 25.9577 30.6066 25.3719C30.0208 24.7861 29.0711 24.7861 28.4853 25.3719L18.9393 34.9179ZM50 34.4785H20V37.4785H50V34.4785Z" fill="#B4CDED"/>
</svg>
