<svg width="70" height="71" viewBox="0 0 70 71" fill="none" xmlns="http://www.w3.org/2000/svg">
<rect x="1.5" y="2.47852" width="67" height="67" rx="33.5" stroke="#1472D0" stroke-width="3"/>
<path d="M20 34.4785C19.1716 34.4785 18.5 35.1501 18.5 35.9785C18.5 36.8069 19.1716 37.4785 20 37.4785V34.4785ZM51.0607 37.0392C51.6464 36.4534 51.6464 35.5036 51.0607 34.9179L41.5147 25.3719C40.9289 24.7861 39.9792 24.7861 39.3934 25.3719C38.8076 25.9577 38.8076 26.9074 39.3934 27.4932L47.8787 35.9785L39.3934 44.4638C38.8076 45.0496 38.8076 45.9993 39.3934 46.5851C39.9792 47.1709 40.9289 47.1709 41.5147 46.5851L51.0607 37.0392ZM20 37.4785H50V34.4785H20V37.4785Z" fill="#1472D0"/>
</svg>
