<svg width="166" height="116" viewBox="0 0 166 116" fill="none" xmlns="http://www.w3.org/2000/svg">
<path d="M165.698 42.2757L155.85 17.5241C155.125 15.6829 153.864 14.1042 152.233 12.9941C150.602 11.884 148.676 11.2939 146.706 11.3009H120.983V4.24312C120.983 3.11778 120.538 2.03852 119.747 1.24278C118.955 0.447042 117.882 0 116.763 0H9.84746C7.23575 0 4.73101 1.0431 2.88425 2.89983C1.0375 4.75655 0 7.27482 0 9.90062V89.1056C0 91.7314 1.0375 94.2497 2.88425 96.1064C4.73101 97.9631 7.23575 99.0062 9.84746 99.0062H22.9305C23.8991 103.802 26.4871 108.114 30.2559 111.211C34.0247 114.308 38.7426 116 43.6102 116C48.4777 116 53.1956 114.308 56.9644 111.211C60.7332 108.114 63.3212 103.802 64.2898 99.0062H101.71C102.679 103.802 105.267 108.114 109.036 111.211C112.804 114.308 117.522 116 122.39 116C127.257 116 131.975 114.308 135.744 111.211C139.513 108.114 142.101 103.802 143.069 99.0062H156.153C158.764 99.0062 161.269 97.9631 163.116 96.1064C164.962 94.2497 166 91.7314 166 89.1056V43.8456C165.999 43.3078 165.896 42.775 165.698 42.2757ZM120.983 19.8012H146.713C146.995 19.801 147.27 19.8858 147.503 20.0446C147.737 20.2035 147.917 20.4291 148.021 20.6923L155.548 39.6025H120.983V19.8012ZM8.44068 9.90062C8.44068 9.52551 8.58889 9.16576 8.85271 8.90051C9.11654 8.63526 9.47436 8.48625 9.84746 8.48625H112.542V56.575H8.44068V9.90062ZM43.6102 107.492C41.1061 107.492 38.6582 106.746 36.5761 105.347C34.494 103.948 32.8712 101.96 31.9129 99.6344C30.9546 97.3084 30.7039 94.749 31.1924 92.2797C31.681 89.8105 32.8868 87.5423 34.6575 85.7621C36.4282 83.9818 38.6841 82.7695 41.1401 82.2783C43.5961 81.7872 46.1418 82.0392 48.4553 83.0027C50.7688 83.9662 52.7462 85.5977 54.1374 87.6911C55.5286 89.7844 56.2712 92.2455 56.2712 94.7631C56.2712 98.1392 54.9373 101.377 52.5629 103.764C50.1885 106.151 46.9681 107.492 43.6102 107.492ZM101.71 90.52H64.2898C63.3212 85.724 60.7332 81.4122 56.9644 78.3152C53.1956 75.2181 48.4777 73.5262 43.6102 73.5262C38.7426 73.5262 34.0247 75.2181 30.2559 78.3152C26.4871 81.4122 23.8991 85.724 22.9305 90.52H9.84746C9.47436 90.52 9.11654 90.371 8.85271 90.1057C8.58889 89.8405 8.44068 89.4807 8.44068 89.1056V65.0612H112.542V76.0085C109.785 77.4756 107.384 79.5371 105.511 82.0458C103.639 84.5545 102.341 87.4482 101.71 90.52ZM122.39 107.492C119.886 107.492 117.438 106.746 115.356 105.347C113.274 103.948 111.651 101.96 110.693 99.6344C109.734 97.3084 109.484 94.749 109.972 92.2797C110.461 89.8105 111.666 87.5423 113.437 85.7621C115.208 83.9818 117.464 82.7695 119.92 82.2783C122.376 81.7872 124.921 82.0392 127.235 83.0027C129.548 83.9662 131.526 85.5977 132.917 87.6911C134.308 89.7844 135.051 92.2455 135.051 94.7631C135.051 98.1392 133.717 101.377 131.343 103.764C128.968 106.151 125.748 107.492 122.39 107.492ZM157.559 89.1056C157.559 89.4807 157.411 89.8405 157.147 90.1057C156.883 90.371 156.526 90.52 156.153 90.52H143.069C142.09 85.731 139.499 81.4279 135.732 78.3361C131.965 75.2444 127.253 73.5531 122.39 73.5475C121.919 73.5475 121.447 73.5475 120.983 73.597V48.0887H157.559V89.1056Z" fill="#00A0E3"/>
</svg>
