<svg width="110" height="112" viewBox="0 0 110 112" fill="none" xmlns="http://www.w3.org/2000/svg">
<path d="M105 106H5" stroke="#00A0E3" stroke-width="8" stroke-linecap="round"/>
<path d="M100 106V68.5C100 64.3579 96.6421 61 92.5 61H77.5C73.3579 61 70 64.3579 70 68.5V106" stroke="#00A0E3" stroke-width="8"/>
<path d="M70 106V21C70 13.9289 70 10.3934 67.8033 8.1967C65.6066 6 62.0711 6 55 6C47.9289 6 44.3934 6 42.1967 8.1967C40 10.3934 40 13.9289 40 21V106" stroke="#00A0E3" stroke-width="8"/>
<path d="M40 106V43.5C40 39.3579 36.6421 36 32.5 36H17.5C13.3579 36 10 39.3579 10 43.5V106" stroke="#00A0E3" stroke-width="8"/>
</svg>
