<svg width="50" height="50" viewBox="0 0 50 50" fill="none" xmlns="http://www.w3.org/2000/svg">
<path d="M22.3896 8.55455C23.4451 6.661 23.9729 5.71423 24.7619 5.71423C25.551 5.71423 26.0787 6.661 27.1343 8.55454L27.4074 9.04443C27.7073 9.58251 27.8573 9.85155 28.0911 10.0291C28.325 10.2066 28.6162 10.2725 29.1987 10.4043L29.729 10.5243C31.7787 10.988 32.8036 11.2199 33.0474 12.004C33.2912 12.7881 32.5925 13.6051 31.1952 15.2392L30.8337 15.6619C30.4366 16.1263 30.238 16.3584 30.1487 16.6457C30.0594 16.9329 30.0894 17.2427 30.1494 17.8622L30.2041 18.4262C30.4154 20.6064 30.521 21.6965 29.8826 22.1811C29.2443 22.6657 28.2847 22.2239 26.3655 21.3402L25.869 21.1116C25.3237 20.8605 25.051 20.7349 24.7619 20.7349C24.4729 20.7349 24.2002 20.8605 23.6548 21.1116L23.1583 21.3402C21.2392 22.2239 20.2796 22.6657 19.6412 22.1811C19.0029 21.6965 19.1085 20.6064 19.3198 18.4262L19.3744 17.8622C19.4344 17.2427 19.4645 16.9329 19.3751 16.6457C19.2858 16.3584 19.0873 16.1263 18.6902 15.6619L18.3287 15.2392C16.9313 13.6051 16.2326 12.7881 16.4764 12.004C16.7203 11.2199 17.7451 10.988 19.7949 10.5243L20.3252 10.4043C20.9076 10.2725 21.1989 10.2066 21.4327 10.0291C21.6666 9.85155 21.8165 9.58251 22.1165 9.04443L22.3896 8.55455Z" stroke="#1472D0" stroke-width="3"/>
<path d="M40.4805 16.0035C41.0083 15.0568 41.2721 14.5834 41.6667 14.5834C42.0612 14.5834 42.3251 15.0568 42.8528 16.0035L42.9894 16.2485C43.1394 16.5175 43.2144 16.652 43.3313 16.7408C43.4482 16.8296 43.5938 16.8625 43.885 16.9284L44.1502 16.9884C45.1751 17.2203 45.6875 17.3362 45.8094 17.7283C45.9313 18.1203 45.582 18.5288 44.8833 19.3458L44.7025 19.5572C44.504 19.7894 44.4047 19.9055 44.3601 20.0491C44.3154 20.1927 44.3304 20.3476 44.3604 20.6574L44.3878 20.9394C44.4934 22.0295 44.5462 22.5745 44.227 22.8168C43.9078 23.0591 43.4281 22.8382 42.4685 22.3964L42.2202 22.2821C41.9475 22.1565 41.8112 22.0937 41.6667 22.0937C41.5221 22.0937 41.3858 22.1565 41.1131 22.2821L40.8649 22.3964C39.9053 22.8382 39.4255 23.0591 39.1063 22.8168C38.7871 22.5745 38.8399 22.0295 38.9456 20.9394L38.9729 20.6574C39.0029 20.3476 39.0179 20.1927 38.9733 20.0491C38.9286 19.9055 38.8293 19.7894 38.6308 19.5572L38.45 19.3458C37.7514 18.5288 37.402 18.1203 37.5239 17.7283C37.6458 17.3362 38.1583 17.2203 39.1831 16.9884L39.4483 16.9284C39.7395 16.8625 39.8851 16.8296 40.0021 16.7408C40.119 16.652 40.194 16.5175 40.3439 16.2485L40.4805 16.0035Z" stroke="#1472D0" stroke-width="3"/>
<path d="M7.14711 16.0035C7.67488 15.0568 7.93877 14.5834 8.33329 14.5834C8.72782 14.5834 8.9917 15.0568 9.51947 16.0035L9.65601 16.2485C9.80599 16.5175 9.88098 16.652 9.9979 16.7408C10.1148 16.8296 10.2604 16.8625 10.5517 16.9284L10.8168 16.9884C11.8417 17.2203 12.3541 17.3362 12.476 17.7283C12.5979 18.1203 12.2486 18.5288 11.5499 19.3458L11.3692 19.5572C11.1706 19.7894 11.0713 19.9055 11.0267 20.0491C10.982 20.1927 10.997 20.3476 11.027 20.6574L11.0544 20.9394C11.16 22.0295 11.2128 22.5745 10.8936 22.8168C10.5745 23.0591 10.0947 22.8382 9.13509 22.3964L8.88684 22.2821C8.61416 22.1565 8.47781 22.0937 8.33329 22.0937C8.18877 22.0937 8.05243 22.1565 7.77974 22.2821L7.53149 22.3964C6.57191 22.8382 6.09212 23.0591 5.77294 22.8168C5.45376 22.5745 5.50658 22.0295 5.61221 20.9394L5.63954 20.6574C5.66955 20.3476 5.68456 20.1927 5.6399 20.0491C5.59524 19.9055 5.49597 19.7894 5.29743 19.5572L5.11667 19.3458C4.41798 18.5288 4.06864 18.1203 4.19055 17.7283C4.31247 17.3362 4.8249 17.2203 5.84977 16.9884L6.11491 16.9284C6.40615 16.8625 6.55176 16.8296 6.66869 16.7408C6.78561 16.652 6.86059 16.5175 7.01057 16.2485L7.14711 16.0035Z" stroke="#1472D0" stroke-width="3"/>
<path d="M10.4166 42.4758H15.1248C17.2308 42.4758 19.3594 42.6952 21.409 43.1174C25.0345 43.8643 28.8517 43.9548 32.5144 43.3619C34.3204 43.0696 36.0959 42.6226 37.703 41.8469C39.1539 41.1466 40.9311 40.1596 42.1248 39.0539C43.3168 37.9499 44.5583 36.143 45.4394 34.7307C46.195 33.5196 45.8295 32.0337 44.6344 31.1313C43.3068 30.1289 41.3369 30.1291 40.0096 31.1317L36.2446 33.9759C34.7855 35.0781 33.1916 36.0928 31.2928 36.3956C31.0645 36.432 30.8253 36.4652 30.5757 36.4941M30.5757 36.4941C30.5006 36.5028 30.4245 36.5111 30.3475 36.519M30.5757 36.4941C30.8794 36.429 31.1811 36.2417 31.464 35.9947C32.804 34.8252 32.8888 32.8541 31.7261 31.5481C31.4563 31.2451 31.1407 30.9924 30.7897 30.7831C24.9619 27.3071 15.8946 29.9545 10.4166 33.8394M30.5757 36.4941C30.4997 36.5104 30.4235 36.519 30.3475 36.519M30.3475 36.519C29.2571 36.631 27.9815 36.6599 26.5661 36.5263" stroke="#1472D0" stroke-width="3" stroke-linecap="round"/>
<rect x="4.16663" y="29.1666" width="6.25" height="16.6667" rx="1.5" stroke="#1472D0" stroke-width="3"/>
</svg>
