<svg width="50" height="50" viewBox="0 0 50 50" fill="none" xmlns="http://www.w3.org/2000/svg">
<path d="M33.3333 45.8333C29.405 45.8333 27.4408 45.8333 26.2204 44.6129C25 43.3925 25 41.4284 25 37.5L25 12.5C25 8.57162 25 6.60743 26.2204 5.38705C27.4408 4.16666 29.405 4.16666 33.3333 4.16666L37.5 4.16666C41.4284 4.16666 43.3926 4.16666 44.6129 5.38705C45.8333 6.60743 45.8333 8.57162 45.8333 12.5V37.5C45.8333 41.4284 45.8333 43.3925 44.6129 44.6129C43.3926 45.8333 41.4284 45.8333 37.5 45.8333H33.3333Z" stroke="#1472D0" stroke-width="3"/>
<path d="M25 25H29.1667M25 12.5L29.1667 12.5M25 37.5H29.1667M25 31.25L31.25 31.25M25 18.75L31.25 18.75" stroke="#1472D0" stroke-width="3" stroke-linecap="round"/>
<path d="M4.16663 12.0833L4.16663 10.1042C4.16663 6.82497 6.96485 4.16666 10.4166 4.16666C13.8684 4.16666 16.6666 6.82497 16.6666 10.1042L16.6666 12.0833M4.16663 12.0833C4.16663 12.0833 6.51038 14.0625 10.4166 14.0625C14.3229 14.0625 16.6666 12.0833 16.6666 12.0833M4.16663 12.0833L4.16663 32.3621C4.16663 33.5945 4.16663 34.2107 4.24531 34.8154C4.33812 35.5287 4.51246 36.2303 4.76523 36.9077C4.97952 37.482 5.2696 38.0331 5.84976 39.1354L8.30817 43.8064M16.6666 12.0833L16.6666 32.3621C16.6666 33.5945 16.6666 34.2107 16.5879 34.8154C16.4951 35.5287 16.3208 36.2303 16.068 36.9077C15.8537 37.482 15.5637 38.0331 14.9835 39.1354L12.5251 43.8064M12.5251 43.8064L11.9241 44.9482C11.6386 45.4907 11.055 45.8333 10.4166 45.8333C9.77822 45.8333 9.19461 45.4907 8.90911 44.9482L8.30817 43.8064M12.5251 43.8064H8.30817" stroke="#1472D0" stroke-width="3"/>
</svg>
