<svg width="116" height="115" viewBox="0 0 116 115" fill="none" xmlns="http://www.w3.org/2000/svg">
<path d="M60.6134 109.773H52.1923C30.29 109.773 19.3389 109.773 12.533 103.213C5.72705 96.6471 5.72705 86.088 5.72705 64.9698V36.5909H110.273V49.6591" stroke="#00A0E3" stroke-width="8" stroke-linecap="round" stroke-linejoin="round"/>
<path d="M89.3634 78.4091H89.4105M5.72705 36.5909L10.7557 24.5264C14.65 15.1696 16.5998 10.4964 20.5516 7.86184C24.5034 5.22729 29.5634 5.22729 39.7043 5.22729H76.2952C86.4309 5.22729 91.4961 5.22729 95.448 7.86184C99.3998 10.4964 101.35 15.1748 105.244 24.5264L110.273 36.5909M57.9998 36.5909V5.22729M47.5452 57.5H57.9998M89.3634 57.5C77.8111 57.5 68.4543 66.9562 68.4543 78.6182C68.4543 85.2882 71.068 90.4737 76.2952 95.1103C79.9805 98.3721 84.4446 103.798 87.1209 108.194C88.4068 110.301 90.2259 110.301 91.6059 108.194C94.4182 103.882 98.7464 98.3721 102.432 95.1103C107.659 90.4737 110.273 85.2882 110.273 78.6182C110.273 66.9614 100.916 57.5 89.3634 57.5Z" stroke="#00A0E3" stroke-width="8" stroke-linecap="round" stroke-linejoin="round"/>
</svg>
