<svg width="33" height="33" viewBox="0 0 33 33" fill="none" xmlns="http://www.w3.org/2000/svg">
<path d="M6.875 11.7076C6.875 6.76046 11.1843 2.75 16.5 2.75C21.8157 2.75 26.125 6.76046 26.125 11.7076C26.125 16.616 23.053 22.3437 18.2601 24.3919C17.1428 24.8694 15.8572 24.8694 14.7399 24.3919C9.94697 22.3437 6.875 16.616 6.875 11.7076Z" stroke="#00A0E3" stroke-width="2"/>
<path d="M19.25 12.375C19.25 13.8938 18.0188 15.125 16.5 15.125C14.9812 15.125 13.75 13.8938 13.75 12.375C13.75 10.8562 14.9812 9.625 16.5 9.625C18.0188 9.625 19.25 10.8562 19.25 12.375Z" stroke="#00A0E3" stroke-width="2"/>
<path d="M28.8207 21.3125C29.7356 22.1409 30.25 23.0747 30.25 24.0625C30.25 27.4798 24.0939 30.25 16.5 30.25C8.90608 30.25 2.75 27.4798 2.75 24.0625C2.75 23.0747 3.26441 22.1409 4.17927 21.3125" stroke="#00A0E3" stroke-width="2" stroke-linecap="round"/>
</svg>
