<svg width="31" height="29" viewBox="0 0 31 29" fill="none" xmlns="http://www.w3.org/2000/svg">
<path d="M3.13408 27.9455L4.83406 21.7522L4.91706 21.4498L4.76013 21.1783C3.56349 19.1082 2.93501 16.76 2.9379 14.3704L2.9379 14.3698C2.94105 6.86207 9.06566 0.750206 16.5938 0.75L3.13408 27.9455ZM3.13408 27.9455L9.51386 26.2762L9.80123 26.201L10.0622 26.3429C12.0561 27.4278 14.3017 28.0001 16.5877 28.0011C16.5878 28.0011 16.5879 28.0011 16.588 28.0011H16.594C24.121 28.0011 30.2469 21.888 30.2502 14.3807M3.13408 27.9455L16.5942 0.75C20.2494 0.751913 23.6755 2.1697 26.2548 4.74525C28.8342 7.32085 30.2515 10.7402 30.2502 14.3807M30.2502 14.3807L31.0002 14.381M30.2502 14.3807L31.0002 14.381M31.0002 14.381C30.9967 22.3039 24.5337 28.7511 16.594 28.7511H16.5877M31.0002 14.381C31.0016 10.5412 29.5049 6.93076 26.7847 4.21453L16.5877 28.7511M16.5877 28.7511C14.1769 28.7501 11.8079 28.1466 9.70371 27.0017L16.5877 28.7511Z" stroke="#2F2F2F" stroke-width="1.5"/>
<path fill-rule="evenodd" clip-rule="evenodd" d="M12.978 8.87419C12.7112 8.32521 12.4305 8.31409 12.1771 8.30459L11.4948 8.29688C11.2574 8.29688 10.8717 8.37937 10.5457 8.70937C10.2197 9.03937 9.2998 9.83692 9.2998 11.4591C9.2998 13.0813 10.5753 14.6488 10.7531 14.869C10.9308 15.0893 13.2154 18.5243 16.8334 19.8459C19.84 20.9442 20.4518 20.7258 21.1047 20.6709C21.7575 20.616 23.2106 19.8733 23.507 19.1034C23.8034 18.3335 23.8036 17.6738 23.7148 17.5359C23.6259 17.398 23.3885 17.316 23.0323 17.151C22.676 16.986 20.9264 16.1885 20.6001 16.0784C20.2739 15.9682 20.0367 15.9135 19.7992 16.2435C19.5616 16.5735 18.8803 17.3158 18.6725 17.5359C18.4648 17.756 18.2574 17.7836 17.9012 17.6188C17.5449 17.4539 16.3988 17.1056 15.0388 15.9824C13.9808 15.1084 13.2665 14.0291 13.0586 13.6993C12.8506 13.3695 13.0365 13.1909 13.215 13.0266C13.3747 12.8788 13.5709 12.6415 13.7492 12.4491C13.9275 12.2567 13.9862 12.1191 14.1047 11.8994C14.2232 11.6797 14.1641 11.4867 14.075 11.3219C13.986 11.1571 13.2944 9.52629 12.978 8.87419Z" fill="#2F2F2F"/>
</svg>
