<svg width="50" height="51" viewBox="0 0 50 51" fill="none" xmlns="http://www.w3.org/2000/svg">
<rect y="0.570312" width="50" height="50" rx="25" fill="white"/>
<path d="M15 24.5703C14.4477 24.5703 14 25.018 14 25.5703C14 26.1226 14.4477 26.5703 15 26.5703V24.5703ZM35.7071 26.2774C36.0976 25.8869 36.0976 25.2537 35.7071 24.8632L29.3431 18.4992C28.9526 18.1087 28.3195 18.1087 27.9289 18.4992C27.5384 18.8898 27.5384 19.5229 27.9289 19.9135L33.5858 25.5703L27.9289 31.2272C27.5384 31.6177 27.5384 32.2509 27.9289 32.6414C28.3195 33.0319 28.9526 33.0319 29.3431 32.6414L35.7071 26.2774ZM15 26.5703L35 26.5703V24.5703L15 24.5703V26.5703Z" fill="#2F2F2F"/>
</svg>
