<svg width="183" height="54" viewBox="0 0 183 54" fill="none" xmlns="http://www.w3.org/2000/svg">
<g clip-path="url(#clip0_348_182)">
<path d="M174.473 47.1285C178.064 47.1285 180.607 46.4785 182.501 45.0785V38.7285C180.557 40.0785 178.213 40.9285 174.922 40.9285C169.387 40.9285 167.094 36.6285 167.094 29.8285C167.094 22.6785 169.886 19.0285 174.972 19.0285C177.964 19.0285 180.906 20.0785 182.452 21.0785V14.4785C180.806 13.5785 177.964 12.9285 174.074 12.9285C164.152 12.9285 159.016 20.0785 159.016 30.0785C159.065 41.0285 164.102 47.1285 174.473 47.1285ZM125.956 44.2285V37.8785C123.562 39.5285 119.474 40.9785 115.734 40.9785C110.049 40.9785 107.905 38.2785 107.556 32.7785H126.305V28.6785C126.305 17.2285 121.269 12.9285 113.54 12.9285C104.066 12.9285 99.578 20.1785 99.578 30.1285C99.578 41.5785 105.213 47.1285 115.086 47.1285C120.022 47.1285 123.662 45.7785 125.956 44.2285ZM54.8003 13.5285V26.5285H44.4286V13.5285H36.6499V46.4785H44.4286V32.7285H54.8003V46.4785H62.5791V13.5285H54.8003ZM97.6333 40.2785H94.1927V13.5285H71.5545V16.3285C71.5545 24.3785 71.0559 34.7785 68.3134 40.2785H65.8202V53.9785H73.0006V46.4785H90.403V53.9785H97.5834V40.2785H97.6333ZM150.738 46.4785H159.564L147.098 28.7285L158.068 13.5285H150.24L139.27 28.7285V13.5285H131.491V46.4785H139.27V30.2785L150.738 46.4785ZM113.34 19.0285C117.18 19.0285 118.377 22.2285 118.377 26.3785V27.0285H107.556C107.756 21.7785 109.65 19.0285 113.34 19.0285ZM86.4139 40.2785H75.4439C77.5881 35.3285 78.1864 26.3285 78.1864 20.6285V19.6285H86.4139V40.2785Z" fill="#2F2F2F"/>
<path d="M30.1676 46.4785H22.2392V7.12852H18.6989C12.2166 7.12852 8.82589 10.3785 8.82589 15.2285C8.82589 20.7285 11.1695 23.2785 16.0063 26.5285L19.9954 29.2285L8.5267 46.4785H0L10.3218 31.0785C4.38801 26.8285 1.04714 22.6785 1.04714 15.6785C1.04714 6.92852 7.13052 0.978516 18.649 0.978516H30.1177V46.4785H30.1676Z" fill="#FC3F1D"/>
</g>
<defs>
<clipPath id="clip0_348_182">
<rect width="183" height="53" fill="white" transform="translate(0 0.978516)"/>
</clipPath>
</defs>
</svg>
